<?xml version="1.0" encoding="UTF-8" standalone="no"?>
<!DOCTYPE svg PUBLIC "-//W3C//DTD SVG 1.1//EN" "http://www.w3.org/Graphics/SVG/1.1/DTD/svg11.dtd">
<!-- Created with Vectornator (http://vectornator.io/) -->
<svg height="100%" stroke-miterlimit="10" style="fill-rule:nonzero;clip-rule:evenodd;stroke-linecap:round;stroke-linejoin:round;" version="1.1" viewBox="0 0 1448 1448" width="100%" xml:space="preserve" xmlns="http://www.w3.org/2000/svg" xmlns:vectornator="http://vectornator.io" xmlns:xlink="http://www.w3.org/1999/xlink">
<defs>
<path d="M227.054 733.181C227.054 451.391 454.013 222.954 733.98 222.954C1013.95 222.954 1240.91 451.391 1240.91 733.181C1240.91 1014.97 1013.95 1243.41 733.98 1243.41C454.013 1243.41 227.054 1014.97 227.054 733.181Z" id="Fill"/>
</defs>
<g id="Layer-2-copy" vectornator:layerName="Layer 2 copy">
<g opacity="1">
<g opacity="0">
<use fill="#c3acd0" fill-rule="nonzero" stroke="none" xlink:href="#Fill"/>
<mask height="1020.45" id="StrokeMask" maskUnits="userSpaceOnUse" width="1013.85" x="227.054" y="222.954">
<rect fill="#000000" height="1020.45" stroke="none" width="1013.85" x="227.054" y="222.954"/>
<use fill="#ffffff" fill-rule="evenodd" stroke="none" xlink:href="#Fill"/>
</mask>
<use fill="none" mask="url(#StrokeMask)" stroke="#dfcddb" stroke-linecap="butt" stroke-linejoin="miter" stroke-width="1" xlink:href="#Fill"/>
</g>
<path d="M1326.92 1147.66C1326.41 1146.71 1326.17 1146.88 1326.2 1148.19C1324.9 1144.58 1323.73 1140.94 1322.68 1137.25C1321.09 1131.68 1319.96 1128.03 1319.27 1126.3C1316.77 1120.04 1313.54 1114.3 1309.58 1109.07C1308.81 1108.04 1307.85 1107.1 1306.7 1106.24C1305.79 1105.56 1304.62 1104.93 1303.19 1104.34C1295.6 1101.25 1287.68 1099.84 1279.42 1100.12C1279.09 1100.14 1279.07 1100.06 1279.36 1099.9C1287.81 1095.36 1293.36 1092.14 1296 1090.26C1298.46 1088.51 1300.61 1086.16 1302.44 1083.19C1303.89 1080.85 1305.12 1077.95 1306.13 1074.5C1308.48 1066.52 1309.33 1058.22 1308.68 1049.61C1308.38 1045.61 1308.18 1040.64 1308.08 1034.69C1308.07 1034.22 1308.2 1034.15 1308.47 1034.49C1308.72 1034.82 1308.85 1035.36 1308.84 1036.09C1308.8 1039.85 1309.26 1043.82 1310.24 1047.99C1311.21 1052.16 1312.28 1056 1313.42 1059.48C1315.19 1064.88 1317.64 1069.48 1320.78 1073.3C1323.57 1076.67 1327.26 1078.71 1331.85 1079.42C1332.18 1079.48 1334.79 1079.74 1339.67 1080.2C1342.29 1080.45 1344.92 1080.54 1347.56 1080.48C1349.75 1080.41 1352.06 1079.8 1354.49 1078.64C1354.92 1078.43 1355.21 1078.48 1355.35 1078.8C1355.46 1079.04 1355.32 1079.36 1355.01 1079.52C1353.19 1080.48 1351.44 1081.54 1349.76 1082.71C1348.07 1083.87 1346.35 1084.96 1344.59 1085.97C1342.52 1087.15 1339.66 1088.9 1336.02 1091.21C1334.68 1092.05 1333.62 1092.92 1332.85 1093.8C1332.65 1094.04 1331.91 1095.15 1330.64 1097.13C1325.6 1105 1323.34 1113.47 1323.87 1122.52C1324.24 1129.05 1325.26 1137.43 1326.92 1147.66Z" fill="#f7efe5" fill-rule="nonzero" opacity="1" stroke="none" vectornator:layerName="path"/>
<path d="M1397.07 1109.32C1396.42 1109.23 1396.08 1108.73 1396.05 1107.82C1396.12 1105.79 1396.46 1105.79 1397.05 1107.82C1397.1 1108.02 1397.11 1108.52 1397.07 1109.32Z" fill="#f7efe5" fill-rule="nonzero" opacity="1" stroke="none" vectornator:layerName="path"/>
<path d="M1396.05 1107.82C1396.08 1108.73 1396.42 1109.23 1397.07 1109.32C1397.88 1113.24 1399.39 1116.87 1401.58 1120.2C1401.74 1120.44 1401.79 1120.76 1401.74 1121.1L1399.91 1132.47C1399.8 1131.93 1399.44 1131.79 1398.85 1132.05C1397.03 1128.4 1395.52 1125.85 1394.33 1124.39C1393.06 1122.85 1392.76 1121.29 1393.44 1119.72C1393.75 1119.01 1393.92 1118.62 1393.94 1118.55C1395.13 1115.08 1395.83 1111.5 1396.05 1107.82Z" fill="#f7efe5" fill-rule="nonzero" opacity="1" stroke="none" vectornator:layerName="path"/>
<path d="M1398.85 1132.05C1399.44 1131.79 1399.8 1131.93 1399.91 1132.47C1399.44 1133.95 1399.08 1133.82 1398.85 1132.05Z" fill="#f7efe5" fill-rule="nonzero" opacity="1" stroke="none" vectornator:layerName="path"/>
<path d="M1291.38 1169.45C1292.58 1169.85 1293.83 1170.05 1295.11 1170.06C1296.3 1170.07 1296.47 1170.49 1295.61 1171.32C1292.27 1174.58 1290.11 1178.28 1289.15 1182.44C1287.31 1190.4 1287.52 1198.31 1289.79 1206.17C1290.01 1206.97 1289.94 1207.02 1289.56 1206.33C1287.9 1203.3 1286.03 1200.41 1283.96 1197.66C1281.14 1193.9 1278.92 1191.28 1277.31 1189.8C1274.43 1187.16 1270.99 1185.32 1267.01 1184.27C1265.08 1183.76 1263.22 1183.08 1261.42 1182.22C1261.14 1182.09 1261.05 1181.78 1261.22 1181.58C1261.48 1181.3 1261.84 1181.15 1262.3 1181.13C1262.68 1181.13 1263 1181.04 1263.22 1180.9C1269.21 1177.09 1272.85 1171.61 1274.12 1164.46C1275.2 1158.38 1275.45 1152.25 1274.87 1146.08C1274.84 1145.77 1274.85 1145.5 1274.9 1145.28C1275.08 1144.43 1275.39 1144.37 1275.82 1145.1C1275.94 1145.29 1276.03 1145.52 1276.09 1145.8C1278.01 1154.3 1282.08 1161.53 1288.28 1167.47C1289.3 1168.45 1290.33 1169.11 1291.38 1169.45Z" fill="#f7efe5" fill-rule="nonzero" opacity="1" stroke="none" vectornator:layerName="path"/>
<path d="M1326.92 1147.66C1328.31 1154.68 1329.38 1159.81 1330.14 1163.03C1330.2 1163.3 1330.19 1163.49 1330.1 1163.6C1329.89 1163.89 1329.73 1163.8 1329.62 1163.35L1326.2 1148.19C1326.17 1146.88 1326.41 1146.71 1326.92 1147.66Z" fill="#f7efe5" fill-rule="nonzero" opacity="1" stroke="none" vectornator:layerName="path"/>
<path d="M1441.23 1198.23C1440.81 1197.89 1440.65 1198.06 1440.76 1198.75C1437.77 1192.74 1433.02 1189.18 1426.5 1188.07C1425.95 1187.98 1425.9 1187.77 1426.34 1187.44C1431.98 1183.19 1433.94 1177.6 1432.22 1170.65C1432.14 1170.32 1432.24 1169.99 1432.46 1169.82C1432.91 1169.48 1433.19 1169.64 1433.3 1170.3C1434.38 1176.77 1438.36 1180.4 1445.23 1181.18C1445.65 1181.23 1445.73 1181.41 1445.44 1181.74C1440.95 1186.86 1439.55 1192.36 1441.23 1198.23Z" fill="#f7efe5" fill-rule="nonzero" opacity="1" stroke="none" vectornator:layerName="path"/>
<path d="M1441.23 1198.23C1442.24 1200.24 1442.08 1200.41 1440.76 1198.75C1440.65 1198.06 1440.81 1197.89 1441.23 1198.23Z" fill="#f7efe5" fill-rule="nonzero" opacity="1" stroke="none" vectornator:layerName="path"/>
<path d="M169.381 467.784C168.866 466.832 168.624 467.009 168.654 468.316C167.356 464.709 166.183 461.063 165.134 457.379C163.55 451.802 162.413 448.152 161.724 446.427C159.223 440.17 155.993 434.425 152.035 429.192C151.263 428.165 150.304 427.222 149.159 426.365C148.248 425.684 147.076 425.051 145.643 424.466C138.061 421.373 130.139 419.967 121.877 420.247C121.544 420.261 121.524 420.189 121.817 420.029C130.267 415.484 135.813 412.269 138.453 410.386C140.919 408.637 143.069 406.281 144.902 403.318C146.347 400.973 147.576 398.077 148.587 394.63C150.935 386.646 151.784 378.348 151.135 369.735C150.834 365.738 150.634 360.765 150.535 354.817C150.528 354.344 150.659 354.278 150.927 354.62C151.182 354.949 151.305 355.481 151.297 356.215C151.254 359.974 151.72 363.941 152.696 368.116C153.672 372.29 154.733 376.121 155.88 379.608C157.643 385.003 160.096 389.607 163.238 393.421C166.028 396.796 169.717 398.837 174.305 399.544C174.641 399.603 177.248 399.863 182.126 400.325C184.747 400.578 187.376 400.67 190.016 400.601C192.209 400.539 194.518 399.928 196.943 398.768C197.381 398.556 197.67 398.606 197.81 398.921C197.921 399.166 197.775 399.483 197.471 399.646C195.652 400.606 193.9 401.67 192.215 402.838C190.531 403.999 188.807 405.085 187.042 406.096C184.979 407.28 182.122 409.026 178.472 411.334C177.135 412.18 176.081 413.043 175.312 413.924C175.103 414.167 174.363 415.277 173.095 417.254C168.053 425.128 165.796 433.591 166.324 442.643C166.702 449.173 167.721 457.553 169.381 467.784Z" fill="#f7efe5" fill-rule="nonzero" opacity="1" stroke="none" vectornator:layerName="path"/>
<path d="M239.529 429.443C238.878 429.358 238.536 428.859 238.503 427.946C238.581 425.914 238.914 425.913 239.503 427.943C239.559 428.141 239.567 428.641 239.529 429.443Z" fill="#f7efe5" fill-rule="nonzero" opacity="1" stroke="none" vectornator:layerName="path"/>
<path d="M238.503 427.946C238.536 428.859 238.878 429.358 239.529 429.443C240.34 433.365 241.843 436.993 244.037 440.327C244.198 440.57 244.251 440.888 244.196 441.221L242.369 452.591C242.252 452.056 241.899 451.918 241.31 452.177C239.49 448.526 237.98 445.973 236.782 444.517C235.514 442.971 235.219 441.412 235.898 439.841C236.207 439.134 236.374 438.746 236.398 438.678C237.588 435.203 238.289 431.626 238.503 427.946Z" fill="#f7efe5" fill-rule="nonzero" opacity="1" stroke="none" vectornator:layerName="path"/>
<path d="M241.31 452.177C241.899 451.918 242.252 452.056 242.369 452.591C241.894 454.08 241.541 453.942 241.31 452.177Z" fill="#f7efe5" fill-rule="nonzero" opacity="1" stroke="none" vectornator:layerName="path"/>
<path d="M133.836 489.572C135.042 489.973 136.285 490.179 137.567 490.19C138.762 490.198 138.93 490.618 138.072 491.449C134.724 494.705 132.57 498.409 131.61 502.561C129.768 510.529 129.98 518.44 132.244 526.296C132.472 527.093 132.398 527.147 132.021 526.456C130.354 523.426 128.486 520.534 126.418 517.782C123.598 514.021 121.382 511.401 119.769 509.924C116.885 507.287 113.451 505.444 109.469 504.397C107.538 503.887 105.673 503.204 103.874 502.348C103.598 502.22 103.505 501.904 103.676 501.706C103.937 501.421 104.298 501.272 104.758 501.259C105.138 501.252 105.454 501.169 105.679 501.029C111.671 497.211 115.303 491.731 116.573 484.589C117.656 478.502 117.906 472.376 117.324 466.209C117.297 465.896 117.308 465.629 117.359 465.406C117.535 464.558 117.843 464.498 118.282 465.226C118.397 465.414 118.484 465.648 118.542 465.925C120.468 474.43 124.533 481.653 130.737 487.595C131.754 488.572 132.787 489.231 133.836 489.572Z" fill="#f7efe5" fill-rule="nonzero" opacity="1" stroke="none" vectornator:layerName="path"/>
<path d="M169.381 467.784C170.769 474.81 171.84 479.935 172.594 483.158C172.659 483.422 172.647 483.613 172.559 483.73C172.344 484.013 172.184 483.927 172.077 483.471L168.654 468.316C168.624 467.009 168.866 466.832 169.381 467.784Z" fill="#f7efe5" fill-rule="nonzero" opacity="1" stroke="none" vectornator:layerName="path"/>
<path d="M283.692 518.355C283.27 518.013 283.11 518.186 283.214 518.876C280.229 512.867 275.477 509.307 268.955 508.197C268.411 508.107 268.358 507.896 268.798 507.563C274.438 503.32 276.4 497.723 274.682 490.771C274.598 490.444 274.694 490.12 274.917 489.95C275.369 489.603 275.649 489.761 275.758 490.424C276.841 496.896 280.816 500.523 287.683 501.305C288.112 501.353 288.184 501.54 287.898 501.866C283.41 506.986 282.008 512.482 283.692 518.355Z" fill="#f7efe5" fill-rule="nonzero" opacity="1" stroke="none" vectornator:layerName="path"/>
<path d="M283.692 518.355C284.694 520.366 284.534 520.54 283.214 518.876C283.11 518.186 283.27 518.013 283.692 518.355Z" fill="#f7efe5" fill-rule="nonzero" opacity="1" stroke="none" vectornator:layerName="path"/>
<g opacity="1">
<path d="M909.498 312.992C909.364 312.992 909.265 313.075 909.201 313.24C908.206 315.763 906.386 317.415 903.739 318.197C900.639 319.11 897.626 318.885 894.7 317.521C888.366 314.564 884.468 309.568 883.008 302.531C881.857 296.983 882.203 291.758 884.047 286.856C886.164 281.211 890.431 277.436 896.846 275.53C906.159 272.762 913.514 274.14 918.912 279.665C922.158 282.992 924.679 288.06 926.477 294.869C930.409 309.776 928.117 324.155 919.601 338.007C918.223 340.244 916.306 342.433 913.852 344.573C910.013 347.923 905.603 349.795 900.624 350.189C898.431 350.36 896.637 350.066 895.241 349.307C893.438 348.331 892.242 346.813 891.655 344.753C891.358 343.697 891.463 342.726 891.969 341.842C892.493 340.929 893.208 340.153 894.115 339.513C895.541 338.503 896.963 337.49 898.382 336.474C904.728 331.914 908.547 325.807 909.838 318.154C910.053 316.864 910.047 315.269 909.821 313.369C909.794 313.155 909.655 312.983 909.498 312.992ZM891.175 283.594C888.377 288.297 886.897 293.279 886.734 298.541C886.728 298.61 886.685 299.126 886.603 300.091C886.498 301.346 886.769 302.519 887.415 303.609C887.554 303.849 887.816 303.986 888.078 303.952C889.212 303.809 889.925 303.121 890.215 301.889C891.559 296.233 892.94 290.583 894.36 284.938C894.546 284.208 894.616 283.657 894.569 283.286C894.447 282.333 893.836 282.028 892.737 282.37C892.083 282.575 891.524 283.012 891.175 283.594Z" fill="#f7efe5" fill-rule="nonzero" opacity="1" stroke="none" vectornator:layerName="path"/>
<path d="M967.589 410.833C966.664 410.748 965.745 410.782 964.832 410.936C963.355 411.187 962.453 411.318 962.127 411.33C955.316 411.507 950.628 408.468 948.063 402.213C946.207 397.675 945.588 392.847 946.204 387.728C946.92 381.769 950.285 378.194 956.299 377.001C958.317 376.596 960.423 376.308 962.616 376.136C963.148 376.094 963.541 375.623 963.471 375.101C961.453 359.834 959.507 344.49 957.634 329.069C957.198 325.434 957.081 321.792 957.285 318.146C957.686 310.932 960.406 305.618 965.443 302.205C969.805 299.249 975.139 297.902 981.445 298.165C990.676 298.553 997.563 303.361 1002.11 312.59C1003.03 314.467 1003.85 316.776 1004.56 319.515C1005.03 321.324 1005.46 323.719 1005.87 326.698C1007.73 340.646 1009.57 354.829 1011.36 369.245C1011.43 369.759 1011.92 370.118 1012.44 370.033C1017.74 369.205 1022.87 368.552 1027.83 368.072C1032.65 367.604 1036.42 368.788 1039.13 371.625C1041.19 373.782 1042.53 377.044 1043.14 381.41C1043.66 385.177 1043.56 388.829 1042.84 392.368C1041.59 398.492 1038.04 401.933 1032.21 402.692C1026.98 403.371 1021.73 404.016 1016.46 404.627C1016.15 404.661 1015.94 404.926 1015.98 405.226C1020.2 438.625 1024.49 471.789 1028.86 504.72C1029.64 510.604 1030.61 516.459 1031.79 522.286C1032.52 525.928 1033.71 529.415 1035.35 532.748C1036.49 535.076 1038.43 536.098 1041.15 535.813C1042.74 535.647 1044.84 535.173 1047.42 534.391C1050.23 533.547 1052.31 533.087 1053.66 533.013C1060.1 532.682 1064.86 535.416 1067.93 541.214C1070.21 545.529 1071.31 550.26 1071.23 555.408C1071.2 558.005 1070.83 560.168 1070.12 561.897C1069.26 563.992 1067.95 565.832 1066.17 567.419C1064.02 569.342 1061.6 570.855 1058.91 571.956C1050.77 575.272 1042.37 577.19 1033.73 577.709C1027.17 578.103 1021.43 577.509 1016.49 575.928C1006.83 572.841 999.43 566.571 994.288 557.12C990.344 549.878 987.352 541.777 985.31 532.816C983.204 523.593 981.73 515.866 980.886 509.634C976.448 476.88 972.179 444.101 968.078 411.296C968.052 411.047 967.842 410.85 967.589 410.833ZM967.188 307.256C965.769 308.974 964.78 310.652 964.221 312.29C961.889 319.139 962.04 325.922 964.675 332.639C965.065 333.632 965.745 333.923 966.717 333.512C967.49 333.181 967.871 331.843 967.86 329.497C967.837 324.446 968.677 319.55 970.381 314.807C971.149 312.684 971.748 310.515 972.179 308.301C972.609 306.103 971.801 305.233 969.753 305.69C968.712 305.924 967.857 306.446 967.188 307.256ZM954.851 404.301C956.479 405.072 957.326 404.535 957.39 402.692C957.425 401.688 957.029 399.699 956.203 396.725C955.168 393.004 954.717 389.212 954.851 385.348C954.955 382.317 954.074 381.909 952.207 384.124C951.276 385.231 950.703 386.623 950.488 388.301C950.354 389.391 950.299 390.855 950.322 392.693C950.369 395.992 951.212 399.225 952.853 402.392C953.295 403.248 953.961 403.885 954.851 404.301ZM1004.57 560.587C1005.14 561.192 1005.79 561.703 1006.51 562.12C1007.98 562.97 1009.2 563.062 1010.17 562.394C1010.9 561.886 1011.55 561.067 1012.1 559.937C1012.49 559.149 1012.65 558.31 1012.56 557.42C1012.5 556.775 1012.18 556.016 1011.61 555.143C1008.16 549.847 1005.74 545.883 1004.34 543.252C1003.24 541.169 1002.28 538.689 1001.46 535.813C1000.98 534.123 1000.53 532.913 1000.13 532.183C999.351 530.802 998.467 529.817 997.473 529.229C995.646 528.156 994.256 528.208 993.302 529.383C992.75 530.063 992.453 531.135 992.412 532.602C992.325 535.838 992.761 538.971 993.721 542.002C994.524 544.507 995.768 547.384 997.455 550.631C999.351 554.278 1001.72 557.597 1004.57 560.587Z" fill="#f7efe5" fill-rule="nonzero" opacity="1" stroke="none" vectornator:layerName="path"/>
<path d="M748.136 605.463C745.594 602.364 743.873 598.623 742.971 594.24C741.517 587.174 740.56 581.81 740.1 578.146C731.439 509.596 722.691 441.059 713.855 372.532C713.303 368.241 712.756 362.813 712.215 356.25C711.872 352.066 711.895 348.208 712.285 344.675C712.727 340.72 714.234 337.507 716.805 335.036C718.835 333.09 721.862 331.583 725.887 330.516C731.826 328.946 737.721 328.767 743.573 329.977C750.338 331.375 754.994 334.865 757.542 340.446C758.403 342.336 759.243 346.379 760.063 352.577C760.75 357.748 761.611 362.893 762.646 368.012C762.855 369.045 763.236 369.961 763.789 370.76C764.464 371.742 764.993 371.671 765.377 370.546C766.825 366.311 768.172 362.051 769.417 357.765C770.737 353.205 772.473 348.833 774.626 344.65C776.929 340.17 779.567 336.289 782.539 333.007C791.34 323.293 802.796 318.026 816.907 317.204C831.339 316.365 843.283 321.088 852.741 331.372C857.418 336.457 861.353 342.233 864.546 348.699C867.67 355.028 870.29 361.555 872.407 368.278C876.979 382.774 880.423 397.53 882.738 412.546C884.913 426.688 886.903 440.856 888.706 455.05C893.429 492.346 898.135 529.643 902.823 566.94C902.829 567.002 903.195 569.499 903.922 574.43C904.458 578.106 904.612 580.928 904.385 582.897C904.071 585.579 902.526 588.059 899.752 590.336C897.844 591.894 894.991 593.267 891.193 594.454C885.358 596.28 879.867 597.208 874.72 597.236C869.06 597.271 864.133 595.827 859.939 592.905C858.09 591.615 856.676 589.928 855.699 587.845C855.094 586.561 854.605 584.495 854.233 581.647C847.137 527.297 842.623 492.187 840.692 476.315C837.109 446.849 834.401 426.819 832.569 416.227C830.812 406.091 828.576 396.728 825.859 388.139C824.853 384.96 823.448 381.841 821.645 378.782C819.516 375.175 817.277 372.635 814.927 371.163C811.681 369.119 807.909 368.349 803.61 368.851C797.916 369.519 793.289 372.042 789.729 376.419C785.645 381.447 782.693 387.334 780.873 394.08C779.291 399.918 778.232 405.075 777.697 409.549C776.342 420.775 775.833 432.044 776.17 443.356C776.618 458.394 777.807 473.379 779.738 488.309C783.735 519.196 787.684 550.086 791.587 580.979C791.599 581.048 791.799 582.318 792.189 584.789C793.818 595.142 789.74 602.567 779.957 607.064C774.152 609.729 767.712 611.091 760.639 611.148C758.01 611.17 755.649 610.717 753.555 609.786C751.594 608.919 749.788 607.478 748.136 605.463ZM723.331 376.873C723.793 377.112 724.36 376.915 724.57 376.453C724.855 375.797 725.035 375.049 725.111 374.21C726.105 362.95 726.213 351.681 725.434 340.404C725.346 339.154 725.061 338.158 724.579 337.416C723.764 336.166 722.866 336.106 721.882 337.236C720.69 338.612 719.905 340.178 719.527 341.936C718.142 348.425 717.753 354.98 718.358 361.6C718.805 366.48 720.056 371.148 722.109 375.606C722.365 376.154 722.772 376.576 723.331 376.873ZM869.31 579.438C868.502 578.662 867.693 577.883 866.885 577.101C865.471 575.743 864.665 574.322 864.468 572.838C863.944 568.929 863.255 565.618 862.4 562.907C862.115 562.011 861.676 561.375 861.082 560.998C860.157 560.422 859.276 560.396 858.439 560.921C857.706 561.384 857.176 562.223 856.851 563.438C856.519 564.688 856.359 565.967 856.371 567.273C856.441 573.671 870.276 580.363 869.31 579.438ZM754.314 584.823C754.174 582.78 753.38 580.651 751.932 578.437C751.577 577.889 751.19 577.526 750.771 577.35C749.922 576.996 749.358 577.347 749.079 578.403C748.491 580.623 748.273 582.963 748.424 585.422C748.57 587.854 748.869 590.165 749.323 592.357C750.137 596.323 754.616 589.155 754.314 584.823Z" fill="#f7efe5" fill-rule="nonzero" opacity="1" stroke="none" vectornator:layerName="path"/>
<path d="M588.049 612.055C583.517 608.111 579.483 603.728 575.947 598.906C567.833 587.828 561.385 575.877 556.603 563.053C551.223 548.619 547.151 533.838 544.388 518.708C540.637 498.111 538.798 477.345 538.874 456.411C538.915 443.867 539.939 431.402 541.945 419.017C543.684 408.254 546.508 397.978 550.417 388.19C552.837 382.14 556.001 376.245 559.91 370.503C572.213 352.446 589.535 342.618 611.877 341.02C627.547 339.901 641.629 343.36 654.124 351.396C658.643 354.306 663.049 358.013 667.342 362.516C674.369 369.884 680.255 378.265 685.002 387.659C689.957 397.459 693.895 407.121 696.815 416.646C704.441 441.547 709.246 466.938 711.229 492.82C711.741 499.543 712.09 505.236 712.276 509.899C712.776 522.575 712.247 535.636 710.688 549.082C709.03 563.384 705.334 576.739 699.599 589.146C691.304 607.084 678.088 619.183 659.952 625.444C654.525 627.316 648.871 628.597 642.99 629.288C622.335 631.708 604.021 625.963 588.049 612.055ZM555.722 412.126C556.618 412.908 557.383 412.799 558.017 411.801C559.39 409.603 560.41 407.283 561.079 404.841C564.348 392.89 569.674 382.397 577.055 373.363C578.178 371.993 578.189 370.615 577.09 369.228C575.316 366.991 573.495 366.557 571.628 367.927C570.046 369.091 568.792 370.352 567.867 371.71C562.016 380.311 557.813 389.774 555.26 400.098C554.474 403.277 554.239 406.496 554.553 409.755C554.646 410.736 555.036 411.527 555.722 412.126ZM626.081 595.284C631.27 600.073 637.052 601.517 643.427 599.616C645.521 598.994 647.452 598.001 649.22 596.637C651.017 595.239 652.53 593.655 653.757 591.886C656.625 587.737 658.774 583.02 660.205 577.735C663.555 565.339 665.359 552.72 665.614 539.879C665.975 521.97 665.114 504.115 663.032 486.314C659.705 457.904 652.905 430.326 642.633 403.582C639.323 394.97 634.864 387.017 629.257 379.723C627.803 377.834 626.41 376.288 625.078 375.083C623.257 373.445 621.53 372.25 619.895 371.496C614.672 369.105 609.917 369.105 605.63 371.496C603.152 372.872 600.822 375.175 598.641 378.405C596.779 381.156 595.311 384.129 594.235 387.325C592.356 392.901 590.971 398.594 590.082 404.404C588.965 411.715 588.246 419.063 587.926 426.448C586.019 470.559 591.588 513.703 604.635 555.879C606.403 561.598 608.945 568.195 612.261 575.672C615.681 583.405 620.288 589.942 626.081 595.284ZM553.848 430.462C556.281 430.429 558.2 427.176 558.138 423.213C558.078 419.249 556.054 416.064 553.618 416.099C551.185 416.132 549.266 419.386 549.327 423.349C549.388 427.313 551.412 430.498 553.848 430.462Z" fill="#f7efe5" fill-rule="nonzero" opacity="1" stroke="none" vectornator:layerName="path"/>
<path d="M377.774 647.582C371.719 642.703 367.738 636.122 365.83 627.841C364.736 623.087 363.791 617.36 362.994 610.66C362.04 602.55 361.557 598.452 361.546 598.366C353.996 540.079 346.579 481.771 339.297 423.443C336.778 403.223 344.113 388.333 361.301 378.773C367.013 375.6 373.903 373.3 381.971 371.873C385.38 371.268 392.017 370.386 401.882 369.228C409.519 368.332 415.312 367.915 419.262 367.978C434.857 368.212 449.564 372.276 463.385 380.169C473.616 386.007 482.551 393.15 490.188 401.596C498.669 410.973 505.672 421.312 511.198 432.612C517.218 444.911 521.674 457.741 524.565 471.101C529.689 494.763 530.83 518.62 527.985 542.67C525.391 564.585 518.457 584.906 507.185 603.631C503.997 608.91 500.687 613.596 497.255 617.688C491.136 624.97 484.246 631.263 476.586 636.565C469.454 641.496 461.657 645.319 453.194 648.036C448.75 649.457 443.073 650.63 436.162 651.555C430.986 652.245 424.046 653.115 415.344 654.166C408.812 654.953 403.868 655.33 400.512 655.296C391.595 655.193 384.016 652.622 377.774 647.582ZM419.681 607.595C420.332 608.36 421.167 608.742 422.185 608.742C431.207 608.719 439.335 606.225 446.571 601.26C449.916 598.971 453.092 595.992 456.099 592.322C459.002 588.784 461.395 585.126 463.28 581.347C469.231 569.397 472.901 556.433 474.291 542.456C476.112 524.061 475.486 505.804 472.415 487.684C471.269 480.955 470.15 475.35 469.056 470.87C466.409 460.032 462.335 449.688 456.832 439.837C453.604 434.067 449.561 428.919 444.704 424.394C435.729 416.038 425 412.397 412.518 413.47C407.742 413.875 403.886 414.42 400.948 415.105C397.022 416.018 394.768 418.159 394.186 421.526C393.698 424.368 393.631 427.222 393.985 430.087C400.977 486.257 408.196 542.399 415.641 598.512C416.095 601.936 417.441 604.964 419.681 607.595ZM377.879 620.094C379.484 620.556 380.38 619.971 380.566 618.339C380.776 616.45 380.892 614.615 380.915 612.834C380.939 611.344 380.816 609.512 380.549 607.338C378.92 594.2 376.983 581.105 374.738 568.052C374.238 565.153 373.293 562.425 371.902 559.868C371.649 559.406 370.977 559.38 370.69 559.826C370.346 560.351 370.061 560.901 369.834 561.478C369.643 561.969 369.515 562.565 369.451 563.267C368.927 569.26 369.174 576.231 370.192 584.181C372.112 599.225 373.339 608.357 373.874 611.576C374.159 613.282 374.601 614.94 375.2 616.549C375.224 616.607 375.349 617.009 375.576 617.757C375.954 618.984 376.721 619.763 377.879 620.094ZM380.182 639.467C381.16 640.386 381.933 640.243 382.503 639.039C383.434 637.064 383.806 634.904 383.62 632.558C383.608 632.45 383.597 631.733 383.585 630.409C383.579 629.445 383.306 628.617 382.765 627.927C382.061 627.036 381.061 626.657 379.764 626.788C377.995 626.971 376.989 627.921 376.745 629.639C376.605 630.621 376.652 631.848 376.884 633.32C377.257 635.694 378.356 637.743 380.182 639.467Z" fill="#f7efe5" fill-rule="nonzero" opacity="1" stroke="none" vectornator:layerName="path"/>
<path d="M1204.9 1016.98C1202.55 1014.87 1200.72 1012.38 1199.42 1009.51C1197.24 1004.65 1195.54 999.628 1194.35 994.44C1191.81 983.477 1189.75 972.425 1188.16 961.284C1183.14 926.037 1178.58 890.729 1174.49 855.362C1172.91 841.761 1172.02 828.7 1171.81 816.179C1171.74 812.195 1172.19 808.197 1173.14 804.185C1174.04 800.435 1175.34 797.645 1177.03 795.813C1179.14 793.541 1181.98 791.912 1185.55 790.924C1190.58 789.538 1194.87 788.896 1198.42 788.998C1201.86 789.095 1204.63 790.728 1206.73 793.895C1208.72 796.897 1210.2 800.124 1211.19 803.577C1214.57 815.351 1217.14 827.291 1218.88 839.396C1219.62 844.515 1220 847.123 1220.01 847.22C1224.4 876.31 1228.11 905.485 1231.13 934.746C1232.46 947.627 1233.31 960.54 1233.68 973.484C1233.93 982.341 1233.52 990.617 1232.45 998.31C1231.95 1001.91 1230.89 1005.71 1229.27 1009.72C1226.27 1017.2 1220.71 1020.75 1212.6 1020.35C1209.82 1020.22 1207.26 1019.09 1204.9 1016.98ZM1183.33 841.065C1184.17 841.613 1185.04 841.644 1185.93 841.159C1187.72 840.189 1188.66 838.816 1188.76 837.041C1188.8 836.442 1188.7 835.232 1188.46 833.412C1188.33 832.373 1188.1 831.177 1187.78 829.825C1186.88 825.961 1186.41 821.626 1186.37 816.821C1186.35 813.105 1186.22 809.421 1186 805.769C1185.92 804.645 1185.57 803.606 1184.96 802.653C1184.3 801.643 1183.5 801.237 1182.55 801.437C1181.91 801.574 1181.31 802.042 1180.76 802.841C1179.79 804.239 1179.14 805.618 1178.79 806.976C1177.45 812.164 1177.1 817.526 1177.75 823.062C1178.09 825.984 1178.46 828.535 1178.86 830.715C1179.32 833.266 1180.02 835.757 1180.97 838.189C1181.44 839.399 1182.23 840.357 1183.33 841.065Z" fill="#f7efe5" fill-rule="nonzero" opacity="1" stroke="none" vectornator:layerName="path"/>
<path d="M1150.7 890.495C1150.7 894.142 1150.09 897.341 1148.87 900.092C1147.86 902.369 1146.35 904.09 1144.34 905.254C1143.1 905.973 1140.97 906.558 1137.97 907.009C1133.2 907.728 1128.41 908.342 1123.62 908.849C1123.44 908.867 1123.3 909.038 1123.32 909.218C1127.31 941.104 1131.35 972.822 1135.42 1004.37C1136.5 1012.69 1137.97 1020.93 1139.83 1029.11C1140.43 1031.74 1141.31 1034.26 1142.48 1036.69C1143.02 1037.81 1143.78 1038.68 1144.76 1039.32C1145.59 1039.85 1146.66 1040.06 1147.98 1039.95C1150.07 1039.77 1152.12 1039.38 1154.11 1038.79C1157.34 1037.82 1159.33 1037.3 1160.08 1037.23C1163.51 1036.91 1166.64 1037.57 1169.45 1039.21C1171.92 1040.65 1173.91 1042.89 1175.44 1045.92C1177.38 1049.78 1178.42 1054.1 1178.57 1058.88C1178.73 1064.11 1177.04 1068.37 1173.5 1071.67C1170.92 1074.07 1167.7 1075.98 1163.85 1077.41C1161.16 1078.41 1157.57 1079.37 1153.08 1080.3C1148.66 1081.21 1144.2 1081.76 1139.7 1081.96C1134.68 1082.18 1130.24 1081.8 1126.38 1080.82C1115.42 1078.04 1107.14 1071.38 1101.52 1060.86C1097.92 1054.11 1095.27 1047.44 1093.59 1040.84C1091.16 1031.38 1089.3 1021.82 1088 1012.15C1083.63 979.821 1079.47 947.878 1075.49 916.323C1075.36 915.239 1074.74 914.785 1073.64 914.962C1064.71 916.406 1058.68 913.655 1055.55 906.709C1053.58 902.36 1052.87 897.512 1053.42 892.164C1054.02 886.269 1057.25 882.642 1063.1 881.284C1065.14 880.81 1067.39 880.499 1069.86 880.351C1070.46 880.316 1070.9 879.786 1070.82 879.195C1068.7 863.546 1066.73 848.034 1064.93 832.658C1064.47 828.789 1064.48 824.954 1064.96 821.153C1065.54 816.615 1066.76 813.048 1068.64 810.452C1071.42 806.611 1075.55 804.151 1081.02 803.072C1092.63 800.772 1101.5 804.231 1107.63 813.448C1109.33 816.01 1110.71 819.292 1111.77 823.293C1112.6 826.409 1113.28 830.29 1113.83 834.936C1114.5 840.626 1114.84 843.496 1114.85 843.548C1116.18 853.684 1117.5 863.82 1118.8 873.956C1118.83 874.17 1119.03 874.307 1119.25 874.272C1123.19 873.627 1127.1 873.131 1130.98 872.783C1135.35 872.395 1138.13 872.269 1139.34 872.406C1142.48 872.771 1145.05 874.133 1147.05 876.49C1148.48 878.179 1149.48 880.393 1150.02 883.133C1150.48 885.393 1150.7 887.847 1150.7 890.495ZM1072.95 837.855C1073.47 838.12 1074.11 837.889 1074.31 837.358C1074.55 836.782 1074.75 836.171 1074.93 835.526C1075.09 834.978 1075.18 834.339 1075.19 833.609C1075.32 827.296 1076.56 821.201 1078.9 815.323C1079.31 814.29 1079.53 812.937 1079.56 811.265C1079.57 810.426 1078.85 809.741 1078 809.775C1076.13 809.844 1074.68 810.814 1073.65 812.686C1069.42 820.356 1068.82 828.318 1071.84 836.571C1072.05 837.141 1072.42 837.569 1072.95 837.855ZM1062.81 908.653C1064.05 909.001 1064.71 908.481 1064.78 907.095C1064.8 906.558 1064.67 905.748 1064.38 904.663C1062.88 899.11 1062.17 893.463 1062.25 887.721C1062.26 887.447 1062.08 887.216 1061.84 887.148C1060.94 886.92 1060.24 887.179 1059.74 887.927C1058.44 889.884 1057.72 892.045 1057.57 894.407C1057.43 896.633 1057.57 898.842 1058 901.033C1058.46 903.419 1059.5 905.568 1061.11 907.48C1061.63 908.09 1062.2 908.481 1062.81 908.653ZM1113.52 1066.15C1114.93 1067.3 1116.38 1067.36 1117.87 1066.33C1119.03 1065.53 1119.7 1064.35 1119.86 1062.78C1119.98 1061.7 1119.64 1060.5 1118.84 1059.18C1117.51 1056.96 1116.13 1054.78 1114.72 1052.62C1111.81 1048.19 1109.68 1043.43 1108.33 1038.33C1107.77 1036.2 1106.52 1034.56 1104.6 1033.42C1103.61 1032.83 1102.7 1032.62 1101.87 1032.78C1100.69 1033.01 1100.01 1033.86 1099.83 1035.34C1099.54 1037.66 1099.69 1040.3 1100.26 1043.25C1100.92 1046.63 1102.39 1050.38 1104.68 1054.5C1106.35 1057.52 1107.6 1059.61 1108.44 1060.77C1109.82 1062.7 1111.52 1064.5 1113.52 1066.15Z" fill="#f7efe5" fill-rule="nonzero" opacity="1" stroke="none" vectornator:layerName="path"/>
<path d="M1049.17 1069.36C1049.54 1069.91 1050.13 1070.29 1050.79 1070.38C1053.83 1070.82 1056.87 1071.28 1059.89 1071.76C1061.99 1072.09 1063.52 1072.58 1064.49 1073.23C1066.01 1074.27 1066.95 1075.66 1067.29 1077.42C1067.72 1079.56 1067.55 1081.74 1066.78 1083.95C1065.99 1086.25 1064.33 1087.93 1061.82 1089C1060.67 1089.49 1059.33 1089.96 1057.82 1090.42C1056.65 1090.76 1055.27 1091.07 1053.66 1091.37C1034.14 1094.9 1013.24 1097.56 990.981 1099.33C987.834 1099.58 984.958 1099.21 982.352 1098.23C979.903 1097.31 978.135 1095.94 977.047 1094.11C975.779 1091.97 975.552 1089.57 976.367 1086.91C977.1 1084.52 978.647 1082.48 981.008 1080.78C983.201 1079.2 985.589 1078.07 988.172 1077.39C991.313 1076.58 993.122 1076.02 993.599 1075.73C996.042 1074.22 997.06 1071.81 996.653 1068.51C993.541 1043.25 984.234 970.339 968.732 849.78C968.441 847.497 967.595 845.759 966.193 844.566C963.192 842.004 959.679 840.905 955.653 841.271C953.321 841.476 950.997 841.416 948.682 841.091C943.104 840.297 939.739 837.204 938.587 831.811C938.046 829.294 938.66 827.097 940.428 825.219C942.417 823.119 945.425 821.475 949.45 820.288C955.918 818.387 962.485 816.909 969.151 815.853C984.781 813.382 1000.49 811.513 1016.27 810.246C1021.65 809.812 1026.52 810.078 1030.9 811.042C1032.53 811.402 1033.73 812.255 1034.51 813.602C1035.12 814.646 1035.37 815.979 1035.28 817.6C1035.08 821.024 1033.75 824.1 1031.28 826.828C1028.98 829.368 1026.43 831.337 1023.63 832.735C1019.67 834.716 1017.97 837.969 1018.54 842.495C1027.64 914.782 1036.85 987.055 1046.18 1059.31C1046.2 1059.39 1046.27 1060.13 1046.4 1061.54C1046.68 1064.42 1047.6 1067.02 1049.17 1069.36ZM1005.55 1052.94C1006.94 1053.81 1007.86 1053.46 1008.31 1051.91C1008.89 1049.89 1009.14 1047.72 1009.09 1045.39C1008.79 1034.54 1007.29 1023.85 1004.59 1013.33C1004.13 1011.52 1003.42 1009.82 1002.45 1008.23C1001.49 1006.66 1000.66 1006.48 999.968 1007.69C999.421 1008.66 999.125 1009.69 999.078 1010.79C998.578 1024.06 999.849 1036.88 1002.89 1049.26C1003.29 1050.86 1004.17 1052.09 1005.55 1052.94ZM1011.9 1061.91C1011.68 1059.97 1009.61 1058.61 1007.28 1058.87C1004.96 1059.13 1003.25 1060.92 1003.48 1062.85C1003.7 1064.78 1005.77 1066.15 1008.1 1065.88C1010.42 1065.62 1012.13 1063.84 1011.9 1061.91Z" fill="#f7efe5" fill-rule="nonzero" opacity="1" stroke="none" vectornator:layerName="path"/>
<path d="M766.45 1000.21C763.303 1008.65 758.726 1016.42 752.717 1023.52C744.382 1033.37 734.063 1039.37 721.76 1041.52C716.106 1042.52 710.316 1042.6 704.389 1041.76C694.093 1040.33 684.929 1036.43 676.896 1030.08C672.737 1026.8 668.779 1022.64 665.021 1017.61C659.129 1009.71 654.502 1000.85 651.14 991.033C647.178 979.47 644.474 968.404 643.025 957.834C639.809 934.441 636.714 911.032 633.742 887.61C633.323 884.3 632.994 881.461 632.756 879.092C632.389 875.497 632.424 872.654 632.861 870.566C633.698 866.508 635.632 863.143 638.663 860.472C641.17 858.258 644.535 856.643 648.758 855.627C656.22 853.835 663.395 854.4 670.282 857.322C675.738 859.639 679.418 863.357 681.32 868.477C681.849 869.915 682.646 874.746 683.71 882.97C686.264 902.78 688.832 922.587 691.415 942.391C691.426 942.465 691.734 945.076 692.339 950.224C693.596 960.891 695.925 971.335 699.328 981.556C700.457 984.946 702.091 988.08 704.232 990.956C705.668 992.885 707.422 994.372 709.493 995.416C711.255 996.301 713.437 996.792 716.037 996.889C724.378 997.203 731.498 994.283 737.396 988.131C742.445 982.869 746.391 976.896 749.236 970.213C755.43 955.649 758.01 940.602 756.975 925.072C756.882 923.605 756.233 917.932 755.029 908.053C752.772 889.568 751.298 877.919 750.605 873.108C749.937 868.445 749.814 864.025 750.239 859.847C751.146 850.876 755.273 844.778 762.62 841.553C766.337 839.921 770.353 839.319 774.669 839.747C779.049 840.186 783.007 841.55 786.544 843.839C792.582 847.754 796.744 852.873 799.03 859.197C800.594 863.523 801.667 868.325 802.249 873.605C802.68 877.474 802.895 879.423 802.895 879.452C809.677 931.975 816.401 984.504 823.067 1037.04C823.835 1043.08 824.231 1049.15 824.254 1055.24C824.3 1067.62 821.982 1079.09 817.3 1089.65C813.391 1098.45 807.417 1106.2 799.379 1112.92C790.177 1120.62 779.462 1126.09 767.235 1129.34C760.302 1131.19 753.962 1132.41 748.215 1133.01C738.856 1133.98 729.456 1133.33 720.015 1131.05C712.884 1129.34 706.413 1126.55 700.602 1122.71C686.025 1113.06 678.516 1099.48 678.074 1081.99C677.928 1076.02 679.365 1070.76 682.384 1066.21C684.519 1062.99 687.701 1061.19 691.929 1060.79C697.449 1060.27 702.158 1061.44 706.055 1064.28C708.539 1066.09 710.095 1068.67 710.723 1072.02C711.02 1073.58 711.171 1074.38 711.177 1074.41C713.55 1084.06 719.55 1090.17 729.177 1092.74C738.495 1095.24 747.511 1094.7 756.224 1091.14C760.511 1089.39 764.013 1086.78 766.729 1083.33C769.004 1080.43 770.74 1076.63 771.938 1071.92C773.358 1066.34 773.954 1060.28 773.727 1053.74C773.564 1048.99 773.407 1045.92 773.256 1044.54C771.871 1031.89 770.289 1019.26 768.509 1006.66C768.23 1004.68 767.747 1002.54 767.061 1000.23C766.881 999.617 766.677 999.611 766.45 1000.21ZM757.141 869.812C759.037 871.102 760.04 870.617 760.151 868.357C760.348 864.225 761.256 860.261 762.873 856.466C764.548 852.545 765.679 849.574 766.267 847.554C766.5 846.749 766.505 846.093 766.284 845.585C765.883 844.643 765.048 844.509 763.78 845.183C762.373 845.925 761.224 846.946 760.334 848.248C757.234 852.79 755.378 857.79 754.767 863.246C754.424 866.322 755.215 868.511 757.141 869.812ZM640.399 884.075C640.914 884.691 641.9 884.64 642.353 883.98C643.342 882.536 644.072 880.976 644.543 879.298C645.55 875.691 646.53 872.075 647.484 868.451C647.862 867.03 648.563 865.56 649.587 864.042C649.752 863.803 649.84 863.529 649.848 863.263C649.924 859.867 648.359 858.755 645.154 859.924C644.066 860.324 643.246 861.023 642.694 862.022C639.89 867.067 638.439 872.475 638.34 878.245C638.299 880.47 638.986 882.414 640.399 884.075ZM676.608 1021.9C678.307 1023.64 679.929 1024.73 681.477 1025.17C681.738 1025.25 682.026 1025.19 682.236 1025.01C683.981 1023.58 684.618 1021.87 684.147 1019.9C683.914 1018.94 683.3 1017.87 682.306 1016.68C681.398 1015.59 680.517 1014.69 679.662 1013.98C674.619 1009.82 670.727 1005.01 667.988 999.543C667.057 997.676 665.885 994.971 664.472 991.427C664.274 990.93 664.032 990.577 663.747 990.365C663.166 989.92 662.665 989.997 662.247 990.597C662.008 990.939 661.86 991.433 661.802 992.078C661.418 996.387 662.194 1000.48 664.131 1004.37C667.36 1010.86 671.518 1016.7 676.608 1021.9ZM691.415 1066.5C690.67 1066.42 689.981 1066.62 689.347 1067.1C688.928 1067.41 688.506 1067.94 688.082 1068.7C686.057 1072.28 684.798 1076.07 684.304 1080.06C683.926 1083.1 683.891 1086.39 684.199 1089.93C684.496 1093.36 685.249 1096.59 686.459 1099.61C687.052 1101.1 687.884 1101.24 688.954 1100.03C690.013 1098.83 690.548 1097.53 690.559 1096.12C690.583 1091.81 690.827 1087.52 691.292 1083.25C691.345 1082.78 691.784 1080.54 692.61 1076.54C693.186 1073.76 693.322 1070.94 693.02 1068.07C692.933 1067.24 692.261 1066.58 691.415 1066.5Z" fill="#f7efe5" fill-rule="nonzero" opacity="1" stroke="none" vectornator:layerName="path"/>
<path d="M573.853 888.706C574.987 888.677 575.578 888.104 575.624 886.985C575.758 883.635 576.066 880.453 576.549 877.44C577.171 873.508 578.099 870.466 579.332 868.314C581.601 864.359 585.088 861.731 589.794 860.43C596.646 858.529 603.044 858.991 608.989 861.816C612.52 863.494 614.896 866.031 616.117 869.427C616.455 870.363 616.972 873.585 617.67 879.092C624.871 935.993 632.168 992.877 639.561 1049.74C640.335 1055.69 641.193 1061.34 642.135 1066.69C644.2 1078.39 646.382 1090.07 648.679 1101.73C649.842 1107.66 650.395 1113.63 650.337 1119.66C650.273 1125.9 648.842 1131.81 646.044 1137.38C642.711 1144.01 637.761 1147.5 631.194 1147.83C626.866 1148.06 622.827 1146.85 619.075 1144.21C615.643 1141.79 612.717 1138.55 610.298 1134.48C606.563 1128.2 604.077 1121.47 602.838 1114.29C601.924 1108.99 600.776 1103.32 599.391 1097.27C599.17 1096.31 598.559 1095.79 597.559 1095.69C597.035 1095.64 596.622 1096.02 596.32 1096.84C593.993 1103.25 591.821 1109.71 589.802 1116.22C587.447 1123.8 584.079 1130.84 579.699 1137.35C576.081 1142.72 572.21 1146.93 568.086 1149.97C561.484 1154.85 553.829 1157.68 545.121 1158.48C537.274 1159.21 529.78 1157.96 522.637 1154.75C516.419 1151.95 510.904 1148.17 506.094 1143.41C501.673 1139.02 497.788 1134.21 494.437 1128.98C487.376 1117.97 481.795 1106.27 477.694 1093.88C471.842 1076.23 467.419 1057.14 464.423 1036.62C461.741 1018.23 460.36 1000.25 460.279 982.686C460.255 977.693 460.453 972.405 460.872 966.823C461.355 960.38 461.849 955.115 462.355 951.029C464.036 937.4 467.587 924.216 473.008 911.478C475.737 905.068 479.244 899.099 483.531 893.568C495.071 878.684 510.075 870.511 528.544 869.05C533.901 868.628 538.83 868.876 543.333 869.795C548.573 870.862 553.227 872.697 557.293 875.3C562.726 878.787 567.664 882.856 572.108 887.507C572.887 888.318 573.469 888.717 573.853 888.706ZM584.401 891.043C585.111 891.488 585.739 891.588 586.286 891.343C586.682 891.16 587.007 890.723 587.263 890.033C587.822 888.509 588.197 886.948 588.389 885.35C588.697 882.753 588.909 881.172 589.026 880.607C589.509 878.21 590.218 874.569 591.155 869.684C591.475 868.017 591.027 866.864 589.811 866.225C589.567 866.097 589.27 866.071 588.991 866.157C587.38 866.636 586.1 867.566 585.152 868.948C580.621 875.579 579.99 882.511 583.259 889.742C583.494 890.281 583.895 890.735 584.401 891.043ZM544.633 1108.8C545.976 1110.13 547.323 1111.09 548.672 1111.69C551.342 1112.87 553.838 1112.5 556.158 1110.57C558.735 1108.43 560.8 1105.88 562.353 1102.93C563.976 1099.87 565.372 1096.7 566.541 1093.45C570.846 1081.45 574.001 1069.19 576.008 1056.67C576.805 1051.73 577.576 1046.07 578.32 1039.69C580.187 1023.67 580.641 1007.59 579.681 991.453C578.611 973.389 574.417 956.074 567.1 939.506C564.558 933.759 561.071 927.98 556.638 922.17C554.079 918.82 551.162 916.078 547.887 913.943C544.513 911.746 541.288 910.636 538.211 910.613C534.471 910.584 531.091 911.98 528.072 914.799C525.519 917.173 523.416 919.884 521.764 922.932C518.78 928.445 516.544 934.241 515.055 940.319C512.78 949.61 511.381 959.027 510.858 968.57C508.828 1005.52 514.04 1041.41 526.493 1076.25C528.866 1082.87 531.67 1089.31 534.904 1095.57C537.446 1100.48 540.689 1104.89 544.633 1108.8ZM515.194 1138.76C516.933 1140.39 518.702 1141.52 520.499 1142.15C521.598 1142.54 522.581 1142.48 523.448 1141.97C524.489 1141.36 525.126 1140.48 525.359 1139.31C525.563 1138.31 525.286 1137.32 524.53 1136.34C523.919 1135.56 523.169 1134.76 522.279 1133.95C518.51 1130.49 514.583 1126.36 510.5 1121.55C508.057 1118.67 506.312 1115.88 505.265 1113.19C503.008 1107.37 500.937 1102.7 499.053 1099.16C498.366 1097.88 497.532 1097.51 496.549 1098.05C495.955 1098.38 495.56 1098.96 495.362 1099.81C495.089 1100.95 495.028 1102.08 495.179 1103.18C495.871 1108.16 497.378 1113.02 499.698 1117.78C503.555 1125.72 508.72 1132.71 515.194 1138.76ZM621.09 1125.39C618.415 1122.82 616.789 1119.72 616.213 1116.07C615.957 1114.46 615.233 1113.38 614.041 1112.81C612.807 1112.23 611.743 1112.42 610.847 1113.37C610.01 1114.25 609.698 1115.49 609.914 1117.09C610.838 1123.91 613.459 1129.7 617.775 1134.47C619.468 1136.34 623.411 1127.6 621.09 1125.39ZM533.526 1147.97C534.462 1148.64 535.352 1148.59 536.195 1147.8C538.301 1145.82 539.351 1143.36 539.345 1140.42C539.339 1138.29 538.505 1137.08 536.841 1136.78C534.625 1136.39 532.906 1136.96 531.685 1138.49C530.643 1139.79 530.23 1141.32 530.446 1143.06C530.684 1145.02 531.711 1146.66 533.526 1147.97Z" fill="#f7efe5" fill-rule="nonzero" opacity="1" stroke="none" vectornator:layerName="path"/>
<path d="M429.357 1049.84C434.668 1055.01 439.228 1060.03 443.038 1064.91C450.96 1075.07 455.459 1086.54 456.536 1099.33C458.35 1120.84 452.33 1139.14 438.475 1154.22C434.676 1158.36 430.273 1162.06 425.265 1165.31C408.379 1176.31 389.748 1180.69 369.372 1178.46C351.881 1176.55 336.572 1169.78 323.443 1158.16C318.563 1153.84 314.768 1149.55 312.057 1145.26C308.881 1140.25 306.621 1134.77 305.278 1128.84C303.951 1122.96 303.995 1117.19 305.409 1111.53C306.537 1107.01 308.73 1102.96 311.987 1099.36C317.653 1093.1 324.839 1090.23 333.547 1090.76C337.171 1090.98 340.059 1092.5 342.211 1095.32C343.822 1097.44 344.974 1099.78 345.666 1102.35C346.509 1105.48 347.431 1110.23 348.432 1116.61C348.938 1119.83 350.034 1123.44 351.721 1127.45C353.681 1132.11 356.689 1135.54 360.743 1137.74C364.082 1139.56 368.334 1140.52 373.499 1140.61C380.043 1140.72 386.194 1139.3 391.953 1136.34C395.739 1134.39 398.659 1131.89 400.713 1128.84C403.993 1123.97 405.453 1118.27 405.092 1111.74C404.29 1097.18 398.674 1084.64 388.244 1074.12C383.434 1069.28 378.804 1065.12 374.354 1061.65C365.437 1054.71 356.552 1047.72 347.699 1040.7C339.166 1033.93 329.269 1025.17 318.008 1014.41C308.154 1005 300.409 994.908 294.773 984.133C290.247 975.464 288.005 965.779 288.046 955.078C288.144 930.269 298.748 911.809 319.857 899.698C325.273 896.593 331.802 894.016 339.445 891.968C363.026 885.655 385.412 888.284 406.602 899.852C412.494 903.065 417.532 907.263 421.714 912.445C423.139 914.203 424.288 916.103 425.16 918.147C425.945 919.973 426.46 922.099 426.704 924.524C427.606 933.365 425.727 941.783 421.068 949.779C418.666 953.905 415.574 957.141 411.793 959.487C407.995 961.844 404.063 962.937 399.997 962.765C395.623 962.577 391.615 960.979 387.974 957.971C385.066 955.569 383.163 952.547 382.268 948.905C381.837 947.176 381.322 945.47 380.723 943.786C378.147 936.612 372.964 932.597 365.175 931.741C358.986 931.056 353.551 931.932 348.868 934.369C344.244 936.778 341.679 940.833 341.173 946.534C340.16 957.88 342.726 967.988 348.868 976.857C353.673 983.791 359.905 990.585 367.566 997.24C379.281 1007.41 391.237 1017.3 403.435 1026.91C411.77 1033.47 420.411 1041.12 429.357 1049.84ZM304.3 944.129C306.173 944.614 307.503 943.846 308.288 941.826C308.55 941.158 309.117 939.511 309.989 936.886C312.572 929.124 316.71 921.987 322.405 915.476C322.428 915.441 322.78 915.065 323.461 914.346C325.043 912.668 326.078 910.69 326.567 908.413C326.869 907.015 326.334 906.552 324.961 907.026C322.606 907.836 320.523 909.158 318.714 910.99C311.397 918.403 306.191 927.044 303.096 936.912C302.643 938.367 302.393 939.922 302.346 941.577C302.317 942.93 302.968 943.78 304.3 944.129ZM302.001 956.4C303.349 957.321 305.295 956.858 306.351 955.374C307.407 953.888 307.162 951.936 305.815 951.016C304.466 950.095 302.521 950.558 301.465 952.042C300.409 953.528 300.653 955.48 302.001 956.4ZM319.936 1138.35C321.285 1138.7 321.817 1137.82 321.532 1135.71C321.143 1132.78 321.032 1129.86 321.201 1126.93C321.317 1124.82 321.768 1122.43 322.553 1119.78C323.455 1116.71 324.228 1114.4 324.874 1112.86C326.008 1110.16 326.814 1107.19 327.291 1103.98C327.588 1102 326.727 1101.15 324.708 1101.42C322.614 1101.69 320.753 1102.65 319.124 1104.29C317.92 1105.51 316.856 1107.2 315.931 1109.37C313.319 1115.5 312.793 1122.14 314.352 1129.29C315.044 1132.47 316.286 1135.07 318.077 1137.08C318.682 1137.75 319.302 1138.18 319.936 1138.35Z" fill="#f7efe5" fill-rule="nonzero" opacity="1" stroke="none" vectornator:layerName="path"/>
<path d="M1208.83 1070.49C1206.06 1068.04 1204.13 1065.05 1203.04 1061.53C1201.51 1056.56 1201.22 1051.67 1202.18 1046.86C1203.2 1041.73 1205.32 1037.7 1208.54 1034.74C1212.25 1031.33 1217.02 1029.82 1222.85 1030.2C1229.11 1030.61 1234.18 1033.41 1238.04 1038.61C1241.75 1043.6 1243.57 1049.22 1243.48 1055.45C1243.42 1060.52 1241.8 1064.75 1238.64 1068.15C1236.57 1070.38 1233.92 1072.11 1230.7 1073.34C1227.68 1074.49 1224.48 1075.07 1221.11 1075.07C1216.38 1075.08 1212.28 1073.55 1208.83 1070.49ZM1210.71 1040.51C1210.25 1041.05 1209.89 1041.65 1209.65 1042.32C1207.61 1047.94 1207.01 1053.32 1207.87 1058.44C1208.03 1059.41 1208.4 1060.29 1208.96 1061.1C1209.63 1062.06 1210.29 1062.41 1210.95 1062.15C1211.4 1061.97 1211.75 1061.51 1212 1060.77C1212.47 1059.39 1212.67 1057.84 1212.6 1056.1C1212.42 1051.83 1212.83 1047.33 1213.83 1042.61C1214.02 1041.69 1214.07 1040.93 1213.98 1040.35C1213.66 1038.33 1212.57 1038.39 1210.71 1040.51Z" fill="#f7efe5" fill-rule="nonzero" opacity="1" stroke="none" vectornator:layerName="path"/>
<path d="M889.697 303.595C889.563 303.595 889.464 303.678 889.4 303.843C888.405 306.366 886.585 308.018 883.938 308.8C880.838 309.713 877.825 309.488 874.899 308.124C868.565 305.167 864.667 300.171 863.207 293.134C862.056 287.586 862.402 282.361 864.246 277.459C866.363 271.815 870.629 268.039 877.045 266.133C886.358 263.365 893.713 264.743 899.111 270.268C902.357 273.595 904.878 278.663 906.676 285.472C910.608 300.379 908.316 314.758 899.8 328.61C898.422 330.847 896.505 333.036 894.05 335.176C890.211 338.526 885.802 340.398 880.823 340.792C878.63 340.963 876.836 340.669 875.44 339.91C873.637 338.934 872.441 337.416 871.854 335.356C871.557 334.3 871.662 333.33 872.168 332.445C872.691 331.532 873.407 330.756 874.314 330.116C875.739 329.106 877.162 328.093 878.581 327.077C884.927 322.517 888.746 316.411 890.037 308.757C890.252 307.467 890.246 305.872 890.019 303.972C889.993 303.758 889.854 303.587 889.697 303.595ZM871.374 274.197C868.576 278.9 867.096 283.882 866.933 289.144C866.927 289.213 866.883 289.729 866.802 290.694C866.697 291.95 866.968 293.122 867.613 294.212C867.753 294.452 868.015 294.589 868.277 294.555C869.411 294.412 870.123 293.725 870.414 292.492C871.758 286.836 873.139 281.186 874.559 275.541C874.745 274.811 874.815 274.26 874.768 273.889C874.646 272.936 874.035 272.631 872.936 272.973C872.281 273.179 871.723 273.615 871.374 274.197Z" fill="#6d3e8c" fill-rule="nonzero" opacity="1" stroke="none" vectornator:layerName="path"/>
<path d="M947.788 401.437C946.863 401.351 945.944 401.385 945.031 401.539C943.554 401.79 942.652 401.922 942.326 401.933C935.515 402.11 930.827 399.071 928.261 392.816C926.406 388.279 925.786 383.45 926.403 378.331C927.118 372.373 930.483 368.797 936.498 367.604C938.516 367.199 940.622 366.911 942.815 366.74C943.347 366.697 943.74 366.226 943.67 365.704C941.652 350.437 939.706 335.093 937.833 319.672C937.397 316.037 937.28 312.396 937.484 308.749C937.885 301.535 940.605 296.221 945.642 292.809C950.004 289.852 955.338 288.505 961.644 288.768C970.875 289.156 977.762 293.964 982.305 303.193C983.229 305.07 984.047 307.379 984.756 310.118C985.227 311.928 985.664 314.322 986.065 317.301C987.932 331.249 989.765 345.432 991.562 359.848C991.632 360.362 992.12 360.721 992.644 360.636C997.943 359.808 1003.07 359.155 1008.03 358.675C1012.85 358.207 1016.62 359.392 1019.33 362.228C1021.39 364.385 1022.73 367.647 1023.34 372.013C1023.86 375.78 1023.76 379.432 1023.04 382.971C1021.79 389.095 1018.24 392.536 1012.41 393.295C1007.18 393.974 1001.93 394.619 996.657 395.23C996.352 395.264 996.143 395.53 996.177 395.829C1000.4 429.228 1004.69 462.392 1009.06 495.323C1009.84 501.207 1010.81 507.063 1011.99 512.89C1012.72 516.531 1013.91 520.018 1015.55 523.351C1016.69 525.679 1018.63 526.701 1021.35 526.416C1022.94 526.25 1025.03 525.776 1027.62 524.995C1030.43 524.15 1032.51 523.691 1033.86 523.616C1040.3 523.285 1045.06 526.019 1048.13 531.818C1050.41 536.132 1051.51 540.863 1051.43 546.011C1051.4 548.608 1051.03 550.771 1050.32 552.5C1049.46 554.595 1048.15 556.436 1046.37 558.022C1044.22 559.946 1041.8 561.458 1039.1 562.559C1030.97 565.875 1022.57 567.793 1013.92 568.312C1007.37 568.706 1001.62 568.113 996.692 566.532C987.031 563.444 979.629 557.175 974.487 547.724C970.543 540.481 967.55 532.38 965.509 523.419C963.403 514.197 961.929 506.469 961.085 500.237C956.647 467.483 952.378 434.704 948.277 401.899C948.251 401.651 948.041 401.454 947.788 401.437ZM947.387 297.859C945.968 299.577 944.979 301.255 944.42 302.893C942.088 309.742 942.239 316.525 944.874 323.242C945.264 324.235 945.944 324.526 946.916 324.115C947.689 323.784 948.07 322.446 948.059 320.1C948.035 315.049 948.876 310.153 950.58 305.41C951.348 303.287 951.947 301.118 952.378 298.904C952.808 296.707 951.999 295.836 949.952 296.293C948.911 296.527 948.056 297.049 947.387 297.859ZM935.05 394.905C936.678 395.675 937.525 395.139 937.589 393.295C937.623 392.291 937.228 390.302 936.402 387.328C935.367 383.607 934.916 379.815 935.05 375.951C935.154 372.921 934.273 372.512 932.406 374.727C931.475 375.834 930.902 377.227 930.687 378.905C930.553 379.995 930.498 381.458 930.521 383.296C930.568 386.595 931.411 389.828 933.052 392.996C933.494 393.852 934.16 394.488 935.05 394.905ZM984.774 551.191C985.344 551.796 985.989 552.306 986.711 552.723C988.177 553.573 989.395 553.665 990.367 552.997C991.099 552.489 991.745 551.67 992.304 550.54C992.693 549.752 992.844 548.913 992.757 548.023C992.699 547.378 992.382 546.619 991.806 545.746C988.357 540.45 985.934 536.486 984.538 533.855C983.439 531.772 982.479 529.292 981.659 526.416C981.176 524.726 980.731 523.516 980.324 522.786C979.55 521.405 978.666 520.42 977.672 519.832C975.845 518.759 974.455 518.811 973.501 519.987C972.948 520.666 972.652 521.739 972.611 523.205C972.524 526.441 972.96 529.575 973.92 532.605C974.722 535.111 975.967 537.987 977.654 541.234C979.55 544.881 981.924 548.2 984.774 551.191Z" fill="#6d3e8c" fill-rule="nonzero" opacity="1" stroke="none" vectornator:layerName="path"/>
<path d="M728.335 596.066C725.793 592.967 724.071 589.226 723.17 584.843C721.716 577.778 720.759 572.413 720.299 568.749C711.638 500.2 702.89 431.662 694.054 363.136C693.502 358.844 692.955 353.416 692.414 346.853C692.071 342.669 692.094 338.811 692.484 335.279C692.926 331.324 694.432 328.11 697.003 325.639C699.033 323.693 702.061 322.186 706.086 321.119C712.025 319.55 717.92 319.37 723.772 320.58C730.537 321.978 735.193 325.468 737.741 331.05C738.602 332.939 739.442 336.982 740.262 343.18C740.949 348.351 741.81 353.496 742.845 358.615C743.054 359.648 743.435 360.564 743.988 361.363C744.663 362.345 745.192 362.274 745.576 361.149C747.024 356.915 748.371 352.654 749.616 348.368C750.936 343.808 752.672 339.436 754.824 335.253C757.128 330.773 759.766 326.892 762.738 323.61C771.539 313.897 782.995 308.629 797.106 307.807C811.537 306.968 823.482 311.691 832.94 321.975C837.617 327.06 841.552 332.836 844.745 339.302C847.869 345.632 850.489 352.158 852.606 358.881C857.178 373.377 860.622 388.133 862.937 403.149C865.112 417.291 867.102 431.459 868.905 445.653C873.628 482.95 878.334 520.246 883.022 557.543C883.028 557.606 883.394 560.102 884.121 565.033C884.656 568.709 884.811 571.531 884.584 573.5C884.27 576.182 882.725 578.662 879.951 580.939C878.043 582.498 875.19 583.87 871.391 585.057C865.557 586.883 860.066 587.811 854.918 587.839C849.259 587.874 844.332 586.43 840.138 583.508C838.288 582.218 836.875 580.531 835.898 578.448C835.293 577.164 834.804 575.098 834.432 572.25C827.336 517.901 822.822 482.79 820.891 466.918C817.308 437.452 814.6 417.422 812.768 406.83C811.011 396.694 808.774 387.331 806.058 378.742C805.052 375.563 803.647 372.444 801.844 369.385C799.715 365.778 797.476 363.238 795.126 361.766C791.88 359.723 788.108 358.952 783.809 359.454C778.115 360.122 773.487 362.645 769.928 367.022C765.844 372.05 762.892 377.937 761.072 384.683C759.489 390.522 758.431 395.678 757.896 400.152C756.54 411.378 756.031 422.647 756.369 433.959C756.817 448.998 758.006 463.982 759.937 478.912C763.933 509.799 767.883 540.689 771.786 571.582C771.798 571.651 771.998 572.921 772.388 575.392C774.017 585.745 769.939 593.17 760.155 597.667C754.35 600.333 747.911 601.694 740.838 601.751C738.209 601.774 735.847 601.32 733.753 600.39C731.793 599.522 729.987 598.081 728.335 596.066ZM703.53 367.476C703.992 367.716 704.559 367.519 704.769 367.056C705.054 366.4 705.234 365.652 705.31 364.813C706.304 353.553 706.412 342.284 705.632 331.007C705.545 329.757 705.26 328.761 704.777 328.019C703.963 326.769 703.064 326.709 702.081 327.839C700.889 329.215 700.104 330.781 699.726 332.539C698.341 339.028 697.951 345.583 698.556 352.203C699.004 357.083 700.255 361.752 702.308 366.209C702.564 366.757 702.971 367.179 703.53 367.476ZM844.815 580.631C846.845 582.161 848.604 582.392 850.094 581.325C851.21 580.514 851.882 579.233 852.109 577.481C852.324 575.832 852.115 574.236 851.481 572.695C851.132 571.851 850.475 570.966 849.509 570.042C848.7 569.265 847.892 568.486 847.083 567.704C845.67 566.346 844.864 564.925 844.667 563.441C844.143 559.532 843.454 556.222 842.599 553.511C842.314 552.615 841.875 551.978 841.281 551.602C840.356 551.025 839.475 550.999 838.638 551.525C837.905 551.987 837.375 552.826 837.05 554.041C836.718 555.291 836.558 556.57 836.57 557.877C836.639 564.274 838.108 570.327 840.976 576.034C841.895 577.866 843.175 579.399 844.815 580.631ZM738.823 596.357C741.318 597.265 742.941 596.012 743.691 592.599C744.383 589.466 743.56 587.183 741.222 585.751C737.051 583.2 734.815 579.758 734.512 575.426C734.373 573.383 733.579 571.254 732.131 569.04C731.776 568.492 731.389 568.13 730.97 567.953C730.121 567.599 729.557 567.95 729.277 569.006C728.69 571.226 728.472 573.566 728.623 576.026C728.768 578.457 729.068 580.768 729.522 582.96C730.336 586.926 732.122 590.416 734.879 593.43C736.246 594.925 737.56 595.901 738.823 596.357Z" fill="#6d3e8c" fill-rule="nonzero" opacity="1" stroke="none" vectornator:layerName="path"/>
<path d="M568.247 602.658C563.716 598.715 559.682 594.331 556.146 589.509C548.031 578.431 541.584 566.48 536.802 553.656C531.422 539.223 527.35 524.441 524.587 509.311C520.835 488.714 518.997 467.948 519.073 447.014C519.114 434.47 520.137 422.005 522.144 409.621C523.883 398.857 526.707 388.581 530.616 378.793C533.036 372.744 536.2 366.848 540.109 361.107C552.411 343.049 569.734 333.221 592.076 331.623C607.746 330.505 621.828 333.963 634.322 341.999C638.842 344.91 643.248 348.616 647.541 353.119C654.568 360.487 660.454 368.868 665.2 378.262C670.156 388.062 674.094 397.724 677.014 407.249C684.64 432.15 689.445 457.541 691.428 483.423C691.94 490.146 692.289 495.839 692.475 500.502C692.975 513.178 692.446 526.239 690.887 539.685C689.229 553.987 685.533 567.342 679.798 579.749C671.503 597.687 658.287 609.787 640.151 616.047C634.724 617.919 629.07 619.201 623.189 619.891C602.534 622.311 584.22 616.567 568.247 602.658ZM535.921 402.729C536.817 403.511 537.582 403.403 538.216 402.404C539.588 400.207 540.609 397.887 541.278 395.444C544.547 383.493 549.872 373 557.254 363.966C558.376 362.596 558.388 361.218 557.289 359.831C555.515 357.594 553.694 357.16 551.827 358.53C550.245 359.694 548.991 360.955 548.066 362.314C542.215 370.914 538.012 380.377 535.459 390.701C534.673 393.88 534.438 397.099 534.752 400.358C534.845 401.34 535.235 402.13 535.921 402.729ZM606.28 585.888C611.469 590.676 617.25 592.12 623.625 590.219C625.72 589.597 627.651 588.604 629.419 587.24C631.216 585.842 632.729 584.258 633.956 582.489C636.824 578.34 638.973 573.623 640.404 568.338C643.754 555.942 645.557 543.323 645.813 530.482C646.174 512.573 645.313 494.718 643.231 476.917C639.904 448.507 633.104 420.929 622.832 394.186C619.522 385.573 615.063 377.62 609.456 370.327C608.002 368.438 606.609 366.891 605.277 365.687C603.456 364.049 601.728 362.853 600.094 362.1C594.871 359.708 590.115 359.708 585.828 362.1C583.351 363.475 581.021 365.778 578.84 369.008C576.978 371.759 575.51 374.733 574.434 377.929C572.555 383.505 571.17 389.197 570.28 395.007C569.164 402.318 568.445 409.666 568.125 417.051C566.217 461.162 571.787 504.306 584.834 546.482C586.602 552.201 589.144 558.798 592.46 566.275C595.88 574.008 600.487 580.546 606.28 585.888ZM534.047 421.066C536.479 421.032 538.399 417.779 538.337 413.816C538.277 409.852 536.253 406.667 533.817 406.702C531.384 406.736 529.464 409.989 529.526 413.952C529.587 417.916 531.611 421.101 534.047 421.066Z" fill="#6d3e8c" fill-rule="nonzero" opacity="1" stroke="none" vectornator:layerName="path"/>
<path d="M357.973 638.186C351.918 633.306 347.936 626.725 346.029 618.444C344.935 613.69 343.99 607.963 343.193 601.263C342.239 593.153 341.756 589.055 341.745 588.969C334.194 530.682 326.778 472.374 319.496 414.047C316.977 393.826 324.312 378.936 341.5 369.376C347.212 366.203 354.102 363.903 362.17 362.476C365.579 361.871 372.215 360.99 382.081 359.831C389.718 358.935 395.511 358.518 399.461 358.581C415.055 358.815 429.763 362.879 443.584 370.772C453.815 376.61 462.75 383.753 470.387 392.199C478.868 401.576 485.871 411.915 491.397 423.215C497.417 435.514 501.873 448.344 504.764 461.705C509.888 485.367 511.028 509.223 508.184 533.273C505.59 555.189 498.656 575.509 487.383 594.234C484.196 599.514 480.886 604.199 477.454 608.291C471.335 615.574 464.445 621.866 456.785 627.168C449.653 632.099 441.856 635.923 433.393 638.639C428.949 640.06 423.272 641.233 416.361 642.158C411.184 642.848 404.245 643.719 395.543 644.769C389.011 645.556 384.067 645.933 380.711 645.899C371.794 645.796 364.214 643.225 357.973 638.186ZM399.88 598.198C400.531 598.963 401.366 599.345 402.384 599.345C411.406 599.322 419.534 596.828 426.77 591.863C430.115 589.574 433.291 586.595 436.298 582.926C439.201 579.387 441.594 575.729 443.479 571.951C449.429 560 453.1 547.036 454.49 533.059C456.311 514.665 455.685 496.407 452.614 478.287C451.468 471.558 450.348 465.954 449.255 461.473C446.608 450.635 442.534 440.291 437.031 430.441C433.803 424.671 429.76 419.523 424.903 414.997C415.928 406.642 405.199 403 392.716 404.073C387.941 404.478 384.084 405.024 381.147 405.708C377.221 406.622 374.967 408.762 374.385 412.129C373.896 414.971 373.83 417.825 374.184 420.69C381.176 476.86 388.395 533.002 395.84 589.115C396.294 592.539 397.64 595.567 399.88 598.198ZM358.078 610.697C359.683 611.159 360.579 610.574 360.765 608.942C360.975 607.053 361.091 605.218 361.114 603.437C361.137 601.948 361.015 600.116 360.748 597.941C359.119 584.803 357.182 571.708 354.937 558.656C354.437 555.756 353.491 553.028 352.101 550.472C351.848 550.009 351.176 549.984 350.888 550.429C350.545 550.954 350.26 551.505 350.033 552.081C349.841 552.572 349.713 553.168 349.649 553.87C349.126 559.863 349.373 566.834 350.391 574.784C352.311 589.828 353.538 598.96 354.073 602.179C354.358 603.885 354.8 605.543 355.399 607.153C355.423 607.21 355.548 607.612 355.774 608.36C356.153 609.587 356.92 610.366 358.078 610.697ZM360.381 630.07C361.358 630.989 362.132 630.846 362.702 629.642C363.633 627.667 364.005 625.507 363.819 623.161C363.807 623.053 363.796 622.337 363.784 621.013C363.778 620.048 363.505 619.221 362.964 618.53C362.26 617.64 361.26 617.26 359.962 617.391C358.194 617.574 357.188 618.524 356.944 620.242C356.804 621.224 356.851 622.451 357.083 623.923C357.455 626.297 358.555 628.346 360.381 630.07Z" fill="#6d3e8c" fill-rule="nonzero" opacity="1" stroke="none" vectornator:layerName="path"/>
<path d="M1185.1 1007.58C1182.75 1005.47 1180.92 1002.98 1179.62 1000.11C1177.44 995.254 1175.74 990.231 1174.54 985.044C1172.01 974.08 1169.95 963.028 1168.36 951.888C1163.34 916.64 1158.78 881.332 1154.69 845.965C1153.11 832.365 1152.22 819.304 1152.01 806.782C1151.94 802.798 1152.39 798.8 1153.34 794.788C1154.24 791.039 1155.54 788.248 1157.23 786.416C1159.34 784.144 1162.18 782.515 1165.75 781.528C1170.77 780.141 1175.06 779.499 1178.62 779.601C1182.06 779.698 1184.83 781.331 1186.93 784.498C1188.91 787.5 1190.4 790.728 1191.39 794.18C1194.77 805.954 1197.33 817.894 1199.08 829.999C1199.82 835.118 1200.2 837.726 1200.21 837.823C1204.6 866.913 1208.3 896.088 1211.33 925.349C1212.66 938.23 1213.51 951.143 1213.88 964.087C1214.13 972.944 1213.72 981.22 1212.65 988.913C1212.15 992.509 1211.09 996.312 1209.47 1000.32C1206.47 1007.81 1200.91 1011.35 1192.8 1010.96C1190.02 1010.82 1187.46 1009.7 1185.1 1007.58ZM1163.52 831.668C1164.37 832.216 1165.24 832.248 1166.13 831.762C1167.92 830.792 1168.86 829.42 1168.96 827.645C1168.99 827.045 1168.9 825.835 1168.66 824.015C1168.53 822.976 1168.3 821.781 1167.98 820.428C1167.08 816.564 1166.6 812.23 1166.57 807.424C1166.55 803.709 1166.42 800.025 1166.19 796.372C1166.12 795.248 1165.77 794.209 1165.16 793.256C1164.5 792.246 1163.7 791.841 1162.75 792.04C1162.11 792.177 1161.51 792.645 1160.96 793.444C1159.99 794.843 1159.34 796.221 1158.99 797.579C1157.65 802.767 1157.3 808.129 1157.95 813.665C1158.29 816.587 1158.66 819.138 1159.06 821.318C1159.52 823.869 1160.22 826.361 1161.17 828.792C1161.64 830.002 1162.43 830.961 1163.52 831.668Z" fill="#6d3e8c" fill-rule="nonzero" opacity="1" stroke="none" vectornator:layerName="path"/>
<path d="M1130.9 881.098C1130.9 884.745 1130.29 887.944 1129.07 890.695C1128.06 892.972 1126.55 894.693 1124.54 895.857C1123.3 896.576 1121.17 897.161 1118.17 897.612C1113.4 898.331 1108.61 898.945 1103.82 899.453C1103.64 899.47 1103.5 899.641 1103.52 899.821C1107.51 931.707 1111.55 963.425 1115.62 994.974C1116.7 1003.29 1118.17 1011.54 1120.03 1019.71C1120.63 1022.34 1121.51 1024.87 1122.68 1027.29C1123.22 1028.41 1123.98 1029.29 1124.96 1029.92C1125.79 1030.45 1126.86 1030.66 1128.18 1030.55C1130.27 1030.38 1132.32 1029.99 1134.31 1029.39C1137.54 1028.42 1139.53 1027.9 1140.28 1027.83C1143.71 1027.51 1146.84 1028.17 1149.65 1029.82C1152.12 1031.25 1154.11 1033.49 1155.64 1036.52C1157.57 1040.38 1158.62 1044.7 1158.77 1049.48C1158.93 1054.71 1157.24 1058.97 1153.7 1062.27C1151.12 1064.67 1147.9 1066.59 1144.05 1068.01C1141.36 1069.01 1137.77 1069.98 1133.27 1070.9C1128.86 1071.81 1124.4 1072.37 1119.9 1072.56C1114.88 1072.78 1110.44 1072.4 1106.58 1071.42C1095.62 1068.64 1087.34 1061.99 1081.72 1051.46C1078.12 1044.72 1075.47 1038.05 1073.79 1031.44C1071.36 1021.99 1069.5 1012.42 1068.19 1002.76C1063.83 970.425 1059.66 938.481 1055.69 906.926C1055.56 905.842 1054.94 905.388 1053.84 905.565C1044.91 907.009 1038.88 904.258 1035.75 897.312C1033.78 892.964 1033.07 888.115 1033.62 882.768C1034.22 876.872 1037.44 873.245 1043.3 871.887C1045.34 871.413 1047.59 871.102 1050.05 870.954C1050.66 870.92 1051.1 870.389 1051.02 869.798C1048.89 854.149 1046.93 838.637 1045.13 823.262C1044.67 819.392 1044.68 815.557 1045.16 811.756C1045.74 807.219 1046.96 803.652 1048.84 801.055C1051.62 797.214 1055.75 794.754 1061.21 793.675C1072.83 791.375 1081.7 794.834 1087.83 804.051C1089.52 806.614 1090.91 809.895 1091.97 813.896C1092.8 817.012 1093.48 820.893 1094.03 825.539C1094.7 831.229 1095.04 834.1 1095.05 834.151C1096.38 844.287 1097.7 854.423 1099 864.559C1099.03 864.773 1099.23 864.91 1099.45 864.876C1103.39 864.231 1107.3 863.734 1111.18 863.386C1115.55 862.998 1118.33 862.872 1119.54 863.009C1122.68 863.375 1125.25 864.736 1127.25 867.093C1128.68 868.782 1129.67 870.997 1130.22 873.736C1130.67 875.996 1130.9 878.45 1130.9 881.098ZM1053.15 828.458C1053.67 828.723 1054.3 828.492 1054.51 827.961C1054.75 827.385 1054.95 826.774 1055.13 826.129C1055.29 825.582 1055.37 824.942 1055.39 824.212C1055.52 817.9 1056.76 811.804 1059.09 805.926C1059.51 804.893 1059.73 803.54 1059.76 801.868C1059.77 801.029 1059.05 800.344 1058.2 800.379C1056.33 800.447 1054.88 801.417 1053.85 803.289C1049.62 810.96 1049.02 818.921 1052.04 827.174C1052.24 827.745 1052.62 828.173 1053.15 828.458ZM1043 899.256C1044.25 899.604 1044.91 899.085 1044.98 897.698C1045 897.161 1044.87 896.351 1044.58 895.266C1043.07 889.713 1042.37 884.066 1042.45 878.325C1042.46 878.051 1042.28 877.82 1042.04 877.751C1041.14 877.523 1040.44 877.782 1039.94 878.53C1038.64 880.488 1037.92 882.648 1037.77 885.011C1037.63 887.236 1037.77 889.445 1038.2 891.637C1038.66 894.022 1039.7 896.171 1041.31 898.083C1041.83 898.694 1042.39 899.085 1043 899.256ZM1093.72 1056.75C1095.13 1057.9 1096.57 1057.96 1098.07 1056.93C1099.23 1056.13 1099.9 1054.95 1100.06 1053.38C1100.17 1052.31 1099.83 1051.1 1099.04 1049.78C1097.71 1047.57 1096.33 1045.38 1094.92 1043.22C1092.01 1038.79 1089.88 1034.03 1088.53 1028.93C1087.97 1026.81 1086.72 1025.17 1084.8 1024.02C1083.81 1023.43 1082.9 1023.22 1082.07 1023.38C1080.89 1023.61 1080.21 1024.47 1080.03 1025.94C1079.74 1028.26 1079.89 1030.9 1080.46 1033.86C1081.12 1037.24 1082.59 1040.99 1084.88 1045.11C1086.55 1048.12 1087.8 1050.21 1088.64 1051.37C1090.02 1053.31 1091.72 1055.1 1093.72 1056.75Z" fill="#6d3e8c" fill-rule="nonzero" opacity="1" stroke="none" vectornator:layerName="path"/>
<path d="M1029.37 1059.97C1029.73 1060.52 1030.33 1060.89 1030.99 1060.99C1034.03 1061.43 1037.07 1061.89 1040.09 1062.36C1042.19 1062.7 1043.72 1063.19 1044.69 1063.84C1046.21 1064.87 1047.15 1066.27 1047.49 1068.02C1047.91 1070.16 1047.75 1072.34 1046.98 1074.56C1046.19 1076.85 1044.53 1078.53 1042.02 1079.61C1040.87 1080.09 1039.53 1080.56 1038.01 1081.02C1036.85 1081.36 1035.47 1081.68 1033.86 1081.97C1014.33 1085.51 993.441 1088.16 971.18 1089.93C968.033 1090.18 965.157 1089.82 962.551 1088.83C960.102 1087.92 958.334 1086.54 957.246 1084.71C955.978 1082.57 955.751 1080.18 956.566 1077.52C957.299 1075.13 958.846 1073.08 961.207 1071.38C963.4 1069.8 965.788 1068.67 968.371 1068C971.512 1067.18 973.321 1066.63 973.798 1066.33C976.241 1064.82 977.259 1062.42 976.851 1059.11C973.739 1033.85 964.433 960.942 948.931 840.383C948.64 838.1 947.794 836.362 946.392 835.17C943.391 832.607 939.877 831.508 935.852 831.874C933.52 832.079 931.196 832.019 928.881 831.694C923.303 830.901 919.938 827.807 918.786 822.414C918.245 819.897 918.859 817.7 920.627 815.822C922.616 813.722 925.624 812.078 929.649 810.891C936.117 808.991 942.684 807.513 949.35 806.457C964.979 803.985 980.685 802.116 996.465 800.849C1001.85 800.416 1006.72 800.681 1011.1 801.646C1012.73 802.005 1013.93 802.858 1014.71 804.205C1015.31 805.25 1015.57 806.582 1015.48 808.203C1015.28 811.627 1013.95 814.704 1011.48 817.432C1009.18 819.971 1006.63 821.94 1003.83 823.339C999.868 825.319 998.173 828.572 998.743 833.098C1007.84 905.385 1017.05 977.658 1026.38 1049.92C1026.4 1049.99 1026.47 1050.73 1026.6 1052.14C1026.88 1055.02 1027.8 1057.63 1029.37 1059.97ZM985.751 1043.55C987.141 1044.41 988.06 1044.06 988.508 1042.51C989.084 1040.5 989.343 1038.33 989.285 1036C988.988 1025.14 987.49 1014.45 984.791 1003.93C984.332 1002.13 983.616 1000.43 982.645 998.835C981.685 997.266 980.859 997.086 980.167 998.296C979.62 999.26 979.324 1000.29 979.277 1001.39C978.777 1014.66 980.048 1027.49 983.09 1039.87C983.485 1041.46 984.372 1042.69 985.751 1043.55ZM992.102 1052.51C991.876 1050.58 989.808 1049.22 987.482 1049.48C985.158 1049.74 983.448 1051.52 983.675 1053.45C983.901 1055.39 985.969 1056.75 988.296 1056.49C990.62 1056.23 992.33 1054.45 992.102 1052.51Z" fill="#6d3e8c" fill-rule="nonzero" opacity="1" stroke="none" vectornator:layerName="path"/>
<path d="M746.649 990.814C743.502 999.255 738.924 1007.02 732.916 1014.12C724.58 1023.97 714.262 1029.97 701.959 1032.13C696.305 1033.12 690.515 1033.2 684.588 1032.37C674.292 1030.93 665.128 1027.03 657.095 1020.68C652.936 1017.4 648.978 1013.24 645.22 1008.21C639.328 1000.31 634.701 991.453 631.338 981.636C627.377 970.074 624.672 959.007 623.224 948.438C620.007 925.044 616.913 901.636 613.941 878.213C613.522 874.903 613.193 872.064 612.955 869.695C612.588 866.1 612.623 863.258 613.059 861.169C613.897 857.111 615.831 853.747 618.862 851.076C621.369 848.861 624.734 847.246 628.957 846.23C636.419 844.438 643.594 845.003 650.481 847.925C655.937 850.242 659.616 853.961 661.518 859.08C662.048 860.518 662.845 865.349 663.909 873.573C666.463 893.383 669.031 913.19 671.613 932.994C671.625 933.068 671.933 935.679 672.538 940.827C673.795 951.494 676.124 961.938 679.527 972.16C680.655 975.55 682.29 978.683 684.431 981.559C685.867 983.488 687.621 984.975 689.692 986.02C691.454 986.904 693.635 987.395 696.236 987.492C704.577 987.806 711.696 984.887 717.595 978.734C722.643 973.472 726.59 967.5 729.434 960.817C735.629 946.252 738.209 931.205 737.174 915.675C737.081 914.209 736.432 908.536 735.228 898.657C732.971 880.171 731.496 868.522 730.804 863.711C730.135 859.049 730.013 854.628 730.438 850.451C731.345 841.479 735.472 835.381 742.819 832.156C746.536 830.524 750.552 829.922 754.868 830.35C759.248 830.789 763.206 832.153 766.743 834.442C772.781 838.357 776.942 843.476 779.228 849.8C780.793 854.126 781.866 858.929 782.448 864.208C782.878 868.077 783.094 870.026 783.094 870.055C789.876 922.578 796.6 975.107 803.266 1027.64C804.034 1033.69 804.429 1039.75 804.453 1045.84C804.499 1058.22 802.181 1069.69 797.499 1080.25C793.59 1089.05 787.616 1096.81 779.577 1103.53C770.375 1111.22 759.661 1116.69 747.434 1119.94C740.501 1121.79 734.161 1123.02 728.414 1123.62C719.055 1124.59 709.655 1123.93 700.214 1121.66C693.083 1119.94 686.612 1117.16 680.801 1113.31C666.224 1103.66 658.715 1090.09 658.273 1072.59C658.127 1066.63 659.564 1061.36 662.583 1056.81C664.718 1053.6 667.899 1051.79 672.128 1051.39C677.648 1050.88 682.357 1052.04 686.254 1054.88C688.738 1056.7 690.294 1059.28 690.922 1062.62C691.219 1064.19 691.37 1064.98 691.376 1065.01C693.749 1074.66 699.749 1080.77 709.376 1083.35C718.694 1085.84 727.71 1085.31 736.423 1081.75C740.71 1079.99 744.212 1077.38 746.928 1073.93C749.203 1071.04 750.939 1067.23 752.137 1062.52C753.556 1056.94 754.153 1050.88 753.926 1044.34C753.763 1039.59 753.606 1036.52 753.455 1035.14C752.07 1022.49 750.488 1009.86 748.708 997.26C748.429 995.285 747.946 993.142 747.26 990.831C747.079 990.22 746.876 990.214 746.649 990.814ZM737.339 860.415C739.236 861.705 740.239 861.22 740.35 858.96C740.547 854.828 741.455 850.864 743.072 847.069C744.747 843.148 745.878 840.178 746.466 838.157C746.698 837.353 746.704 836.696 746.483 836.188C746.082 835.247 745.247 835.113 743.979 835.786C742.572 836.528 741.423 837.55 740.533 838.851C737.432 843.394 735.577 848.393 734.966 853.849C734.623 856.925 735.414 859.114 737.339 860.415ZM620.598 874.678C621.113 875.294 622.099 875.243 622.552 874.584C623.541 873.14 624.271 871.579 624.742 869.901C625.749 866.294 626.729 862.678 627.683 859.054C628.061 857.633 628.762 856.164 629.785 854.645C629.951 854.406 630.038 854.132 630.047 853.866C630.123 850.471 628.558 849.358 625.353 850.528C624.265 850.927 623.445 851.626 622.893 852.625C620.089 857.67 618.638 863.078 618.539 868.848C618.498 871.074 619.184 873.017 620.598 874.678ZM656.807 1012.51C658.505 1014.25 660.128 1015.34 661.676 1015.78C661.937 1015.85 662.225 1015.79 662.435 1015.61C664.18 1014.18 664.817 1012.48 664.345 1010.5C664.113 1009.54 663.499 1008.47 662.504 1007.28C661.597 1006.19 660.716 1005.3 659.861 1004.59C654.818 1000.43 650.926 995.613 648.187 990.146C647.256 988.28 646.084 985.574 644.67 982.03C644.473 981.534 644.231 981.18 643.946 980.969C643.365 980.523 642.864 980.601 642.445 981.2C642.207 981.542 642.059 982.036 642 982.681C641.617 986.99 642.393 991.088 644.33 994.974C647.558 1001.46 651.717 1007.31 656.807 1012.51ZM671.613 1057.1C670.869 1057.02 670.18 1057.22 669.546 1057.71C669.127 1058.02 668.705 1058.55 668.28 1059.3C666.256 1062.88 664.997 1066.67 664.502 1070.66C664.124 1073.7 664.089 1076.99 664.398 1080.53C664.694 1083.96 665.448 1087.19 666.658 1090.21C667.251 1091.7 668.083 1091.84 669.153 1090.63C670.212 1089.43 670.747 1088.13 670.758 1086.72C670.782 1082.41 671.026 1078.12 671.491 1073.85C671.544 1073.39 671.983 1071.15 672.809 1067.14C673.385 1064.36 673.521 1061.54 673.219 1058.68C673.132 1057.84 672.46 1057.19 671.613 1057.1Z" fill="#6d3e8c" fill-rule="nonzero" opacity="1" stroke="none" vectornator:layerName="path"/>
<path d="M554.052 879.309C555.186 879.281 555.776 878.707 555.823 877.588C555.957 874.238 556.265 871.056 556.748 868.043C557.37 864.111 558.298 861.069 559.531 858.917C561.8 854.962 565.287 852.334 569.992 851.033C576.845 849.132 583.243 849.595 589.188 852.42C592.718 854.098 595.094 856.634 596.316 860.03C596.653 860.966 597.171 864.188 597.869 869.695C605.07 926.596 612.367 983.48 619.76 1040.35C620.534 1046.29 621.392 1051.94 622.334 1057.29C624.399 1068.99 626.58 1080.68 628.878 1092.34C630.041 1098.26 630.594 1104.24 630.536 1110.26C630.472 1116.51 629.041 1122.41 626.243 1127.98C622.91 1134.62 617.96 1138.1 611.393 1138.44C607.065 1138.66 603.026 1137.45 599.274 1134.81C595.842 1132.39 592.916 1129.15 590.496 1125.08C586.762 1118.8 584.275 1112.07 583.036 1104.89C582.123 1099.59 580.974 1093.92 579.59 1087.88C579.369 1086.92 578.758 1086.39 577.758 1086.29C577.234 1086.24 576.821 1086.63 576.519 1087.45C574.192 1093.86 572.02 1100.31 570.001 1106.82C567.645 1114.4 564.278 1121.44 559.898 1127.95C556.28 1133.32 552.409 1137.53 548.284 1140.58C541.682 1145.45 534.028 1148.29 525.32 1149.09C517.473 1149.81 509.978 1148.57 502.836 1145.35C496.617 1142.56 491.103 1138.78 486.293 1134.01C481.872 1129.62 477.987 1124.81 474.636 1119.59C467.575 1108.57 461.993 1096.87 457.893 1084.49C452.041 1066.83 447.617 1047.75 444.622 1027.22C441.94 1008.83 440.559 990.856 440.477 973.29C440.454 968.296 440.652 963.008 441.071 957.426C441.554 950.983 442.048 945.718 442.554 941.632C444.235 928.003 447.786 914.819 453.207 902.081C455.935 895.672 459.443 889.702 463.73 884.172C475.27 869.287 490.274 861.115 508.742 859.653C514.1 859.231 519.029 859.479 523.531 860.398C528.772 861.466 533.426 863.3 537.492 865.903C542.924 869.39 547.863 873.459 552.307 878.111C553.086 878.921 553.668 879.321 554.052 879.309ZM564.6 881.646C565.31 882.091 565.938 882.191 566.485 881.946C566.881 881.763 567.206 881.327 567.462 880.636C568.021 879.112 568.396 877.551 568.588 875.953C568.896 873.356 569.108 871.776 569.225 871.211C569.707 868.814 570.417 865.172 571.354 860.287C571.673 858.62 571.226 857.468 570.01 856.828C569.766 856.7 569.469 856.674 569.19 856.76C567.579 857.239 566.299 858.17 565.351 859.551C560.819 866.183 560.188 873.114 563.457 880.345C563.693 880.884 564.094 881.338 564.6 881.646ZM524.831 1099.4C526.175 1100.73 527.522 1101.69 528.871 1102.29C531.541 1103.47 534.036 1103.1 536.357 1101.17C538.934 1099.03 540.999 1096.49 542.552 1093.53C544.175 1090.47 545.571 1087.31 546.74 1084.05C551.045 1072.05 554.2 1059.79 556.207 1047.27C557.004 1042.33 557.774 1036.67 558.519 1030.3C560.386 1014.28 560.84 998.196 559.88 982.056C558.81 963.993 554.616 946.677 547.299 930.109C544.757 924.362 541.27 918.583 536.837 912.773C534.278 909.423 531.361 906.681 528.086 904.546C524.712 902.349 521.487 901.239 518.41 901.216C514.67 901.188 511.29 902.583 508.271 905.402C505.718 907.777 503.615 910.488 501.963 913.535C498.979 919.048 496.743 924.844 495.253 930.922C492.979 940.214 491.58 949.63 491.057 959.173C489.027 996.121 494.238 1032.01 506.692 1066.85C509.065 1073.48 511.869 1079.92 515.103 1086.17C517.645 1091.09 520.888 1095.5 524.831 1099.4ZM495.393 1129.36C497.132 1130.99 498.901 1132.12 500.698 1132.75C501.797 1133.14 502.78 1133.08 503.647 1132.57C504.688 1131.97 505.325 1131.08 505.558 1129.91C505.761 1128.91 505.485 1127.92 504.729 1126.95C504.118 1126.16 503.368 1125.36 502.478 1124.55C498.709 1121.1 494.782 1116.97 490.699 1112.15C488.256 1109.27 486.511 1106.48 485.464 1103.79C483.207 1097.97 481.136 1093.3 479.252 1089.77C478.565 1088.48 477.731 1088.11 476.748 1088.65C476.154 1088.98 475.759 1089.57 475.561 1090.41C475.288 1091.56 475.227 1092.68 475.378 1093.78C476.07 1098.76 477.576 1103.63 479.897 1108.39C483.754 1116.32 488.919 1123.31 495.393 1129.36ZM601.918 1128.77C603.977 1130.07 605.992 1129.9 607.964 1128.26C608.906 1127.48 609.439 1126.63 609.561 1125.7C609.718 1124.53 609.302 1123.49 608.313 1122.58C605.951 1120.4 603.61 1118.2 601.289 1115.99C598.614 1113.43 596.988 1110.32 596.412 1106.68C596.156 1105.07 595.432 1103.98 594.239 1103.41C593.006 1102.84 591.942 1103.02 591.046 1103.97C590.208 1104.85 589.897 1106.1 590.112 1107.69C591.037 1114.51 593.658 1120.3 597.974 1125.07C599.666 1126.94 600.981 1128.18 601.918 1128.77ZM513.724 1138.57C514.661 1139.25 515.551 1139.19 516.394 1138.4C518.5 1136.43 519.55 1133.97 519.544 1131.02C519.538 1128.89 518.704 1127.68 517.04 1127.38C514.824 1126.99 513.105 1127.56 511.883 1129.1C510.842 1130.4 510.429 1131.92 510.644 1133.66C510.883 1135.63 511.91 1137.27 513.724 1138.57Z" fill="#6d3e8c" fill-rule="nonzero" opacity="1" stroke="none" vectornator:layerName="path"/>
<path d="M409.556 1040.44C414.866 1045.61 419.427 1050.64 423.237 1055.52C431.159 1065.67 435.658 1077.14 436.734 1089.93C438.549 1111.45 432.529 1129.74 418.673 1144.82C414.875 1148.96 410.472 1152.66 405.464 1155.92C388.578 1166.91 369.947 1171.29 349.571 1169.07C332.08 1167.15 316.77 1160.39 303.642 1148.76C298.762 1144.45 294.966 1140.15 292.256 1135.87C289.08 1130.85 286.82 1125.38 285.477 1119.45C284.15 1113.56 284.194 1107.79 285.607 1102.13C286.736 1097.62 288.929 1093.56 292.186 1089.96C297.852 1083.7 305.038 1080.83 313.746 1081.36C317.37 1081.58 320.258 1083.1 322.41 1085.92C324.021 1088.04 325.173 1090.38 325.865 1092.95C326.708 1096.08 327.63 1100.83 328.631 1107.21C329.137 1110.43 330.233 1114.05 331.92 1118.05C333.88 1122.71 336.888 1126.14 340.942 1128.34C344.281 1130.16 348.533 1131.12 353.698 1131.21C360.242 1131.32 366.393 1129.9 372.151 1126.94C375.938 1124.99 378.858 1122.5 380.911 1119.45C384.192 1114.57 385.652 1108.87 385.291 1102.34C384.489 1087.78 378.873 1075.25 368.443 1064.73C363.633 1059.88 359.003 1055.72 354.553 1052.25C345.636 1045.31 336.751 1038.33 327.898 1031.31C319.365 1024.53 309.468 1015.77 298.206 1005.02C288.353 995.605 280.608 985.512 274.972 974.736C270.446 966.067 268.204 956.382 268.244 945.681C268.343 920.872 278.947 902.412 300.056 890.301C305.471 887.196 312.001 884.62 319.644 882.571C343.225 876.259 365.61 878.887 386.801 890.455C392.693 893.668 397.73 897.866 401.913 903.048C403.338 904.806 404.487 906.707 405.359 908.75C406.144 910.576 406.659 912.702 406.903 915.127C407.805 923.968 405.926 932.386 401.267 940.382C398.865 944.508 395.773 947.744 391.992 950.09C388.194 952.447 384.262 953.54 380.196 953.369C375.822 953.18 371.814 951.582 368.173 948.575C365.264 946.172 363.362 943.15 362.467 939.509C362.036 937.779 361.521 936.073 360.922 934.389C358.345 927.215 353.163 923.2 345.374 922.344C339.185 921.659 333.749 922.535 329.067 924.972C324.443 927.381 321.878 931.436 321.371 937.137C320.359 948.483 322.925 958.591 329.067 967.46C333.872 974.394 340.104 981.188 347.765 987.843C359.48 998.013 371.436 1007.9 383.634 1017.51C391.969 1024.08 400.61 1031.72 409.556 1040.44ZM284.499 934.732C286.372 935.217 287.701 934.449 288.487 932.429C288.748 931.761 289.316 930.115 290.188 927.489C292.771 919.728 296.909 912.591 302.604 906.079C302.627 906.044 302.979 905.668 303.66 904.949C305.242 903.271 306.277 901.293 306.766 899.016C307.068 897.618 306.533 897.156 305.16 897.629C302.804 898.44 300.722 899.761 298.913 901.593C291.596 909.007 286.39 917.647 283.295 927.515C282.842 928.97 282.591 930.526 282.545 932.181C282.516 933.533 283.167 934.384 284.499 934.732ZM282.2 947.004C283.548 947.924 285.494 947.462 286.55 945.977C287.605 944.491 287.361 942.539 286.014 941.619C284.665 940.699 282.719 941.161 281.664 942.645C280.608 944.131 280.852 946.083 282.2 947.004ZM300.135 1128.95C301.484 1129.3 302.016 1128.43 301.731 1126.31C301.342 1123.39 301.231 1120.46 301.4 1117.53C301.516 1115.42 301.967 1113.04 302.752 1110.38C303.654 1107.31 304.427 1105.01 305.073 1103.47C306.207 1100.76 307.013 1097.8 307.49 1094.58C307.787 1092.6 306.926 1091.75 304.907 1092.02C302.813 1092.29 300.952 1093.25 299.323 1094.9C298.119 1096.11 297.055 1097.8 296.13 1099.97C293.518 1106.11 292.992 1112.75 294.551 1119.89C295.243 1123.08 296.485 1125.67 298.276 1127.68C298.881 1128.36 299.501 1128.78 300.135 1128.95Z" fill="#6d3e8c" fill-rule="nonzero" opacity="1" stroke="none" vectornator:layerName="path"/>
<path d="M1189.03 1061.1C1186.26 1058.64 1184.33 1055.66 1183.24 1052.13C1181.71 1047.16 1181.42 1042.27 1182.38 1037.46C1183.4 1032.34 1185.52 1028.3 1188.74 1025.35C1192.45 1021.93 1197.21 1020.42 1203.05 1020.8C1209.31 1021.21 1214.38 1024.02 1218.24 1029.21C1221.95 1034.2 1223.77 1039.82 1223.68 1046.06C1223.61 1051.12 1222 1055.36 1218.84 1058.75C1216.76 1060.98 1214.12 1062.71 1210.9 1063.94C1207.88 1065.09 1204.68 1065.67 1201.3 1065.68C1196.57 1065.68 1192.48 1064.16 1189.03 1061.1ZM1190.91 1031.12C1190.45 1031.65 1190.09 1032.26 1189.85 1032.92C1187.81 1038.55 1187.21 1043.92 1188.07 1049.04C1188.23 1050.01 1188.59 1050.9 1189.16 1051.71C1189.83 1052.67 1190.49 1053.01 1191.15 1052.75C1191.6 1052.57 1191.94 1052.11 1192.19 1051.37C1192.67 1050 1192.87 1048.44 1192.8 1046.7C1192.62 1042.43 1193.03 1037.94 1194.03 1033.22C1194.22 1032.29 1194.27 1031.54 1194.18 1030.96C1193.86 1028.93 1192.77 1028.99 1190.91 1031.12Z" fill="#6d3e8c" fill-rule="nonzero" opacity="1" stroke="none" vectornator:layerName="path"/>
</g>
<path d="M201.138 390.896C200.623 389.944 200.38 390.122 200.41 391.428C199.112 387.821 197.939 384.176 196.891 380.491C195.307 374.915 194.17 371.264 193.481 369.539C190.979 363.282 187.749 357.537 183.791 352.305C183.019 351.277 182.06 350.335 180.915 349.477C180.005 348.796 178.833 348.163 177.399 347.578C169.818 344.486 161.895 343.079 153.633 343.359C153.3 343.374 153.28 343.301 153.574 343.142C162.024 338.596 167.569 335.382 170.21 333.498C172.676 331.749 174.825 329.393 176.658 326.431C178.104 324.086 179.332 321.189 180.343 317.742C182.691 309.759 183.541 301.461 182.892 292.847C182.591 288.85 182.391 283.877 182.292 277.929C182.284 277.456 182.415 277.39 182.683 277.732C182.938 278.061 183.061 278.593 183.053 279.328C183.01 283.086 183.477 287.053 184.453 291.228C185.429 295.403 186.49 299.234 187.636 302.72C189.399 308.115 191.852 312.72 194.994 316.533C197.784 319.908 201.473 321.949 206.062 322.657C206.398 322.716 209.005 322.976 213.883 323.437C216.503 323.69 219.133 323.782 221.772 323.714C223.965 323.652 226.274 323.041 228.699 321.881C229.137 321.668 229.426 321.719 229.567 322.033C229.677 322.278 229.531 322.595 229.228 322.758C227.408 323.719 225.656 324.783 223.972 325.95C222.288 327.111 220.563 328.197 218.799 329.209C216.735 330.393 213.878 332.139 210.229 334.447C208.891 335.292 207.838 336.156 207.069 337.037C206.859 337.279 206.12 338.389 204.851 340.366C199.809 348.24 197.552 356.703 198.08 365.755C198.458 372.285 199.478 380.665 201.138 390.896Z" fill="#6d3e8c" fill-rule="nonzero" opacity="1" stroke="none" vectornator:layerName="path"/>
<path d="M271.285 352.556C270.634 352.47 270.292 351.972 270.259 351.059C270.337 349.027 270.671 349.026 271.26 351.055C271.315 351.253 271.324 351.753 271.285 352.556Z" fill="#6d3e8c" fill-rule="nonzero" opacity="1" stroke="none" vectornator:layerName="path"/>
<path d="M270.259 351.059C270.292 351.972 270.634 352.47 271.285 352.556C272.097 356.477 273.599 360.105 275.793 363.44C275.954 363.683 276.008 364.001 275.952 364.334L274.126 375.704C274.009 375.168 273.656 375.03 273.067 375.29C271.246 371.639 269.737 369.085 268.539 367.629C267.27 366.083 266.975 364.525 267.654 362.953C267.964 362.246 268.13 361.858 268.154 361.791C269.344 358.316 270.046 354.738 270.259 351.059Z" fill="#6d3e8c" fill-rule="nonzero" opacity="1" stroke="none" vectornator:layerName="path"/>
<path d="M273.067 375.29C273.656 375.03 274.009 375.168 274.126 375.704C273.65 377.193 273.297 377.055 273.067 375.29Z" fill="#6d3e8c" fill-rule="nonzero" opacity="1" stroke="none" vectornator:layerName="path"/>
<path d="M165.593 412.684C166.798 413.086 168.042 413.292 169.323 413.302C170.518 413.31 170.687 413.73 169.829 414.562C166.48 417.817 164.326 421.521 163.366 425.674C161.525 433.641 161.736 441.553 164 449.408C164.228 450.206 164.154 450.259 163.777 449.568C162.11 446.538 160.242 443.647 158.174 440.894C155.354 437.133 153.138 434.514 151.526 433.036C148.641 430.399 145.208 428.557 141.225 427.509C139.294 426.999 137.43 426.317 135.631 425.461C135.355 425.333 135.261 425.017 135.433 424.819C135.694 424.534 136.054 424.385 136.514 424.371C136.894 424.365 137.211 424.281 137.435 424.141C143.428 420.323 147.059 414.843 148.329 407.701C149.412 401.615 149.662 395.488 149.08 389.321C149.053 389.009 149.065 388.741 149.115 388.519C149.292 387.67 149.599 387.61 150.038 388.338C150.153 388.527 150.24 388.76 150.299 389.038C152.224 397.542 156.289 404.765 162.494 410.707C163.511 411.684 164.544 412.343 165.593 412.684Z" fill="#6d3e8c" fill-rule="nonzero" opacity="1" stroke="none" vectornator:layerName="path"/>
<path d="M201.138 390.896C202.525 397.922 203.596 403.047 204.35 406.271C204.415 406.535 204.404 406.726 204.315 406.843C204.101 407.126 203.94 407.039 203.833 406.584L200.41 391.428C200.38 390.122 200.623 389.944 201.138 390.896Z" fill="#6d3e8c" fill-rule="nonzero" opacity="1" stroke="none" vectornator:layerName="path"/>
<path d="M315.448 441.467C315.026 441.125 314.867 441.299 314.97 441.988C311.986 435.979 307.233 432.42 300.712 431.309C300.167 431.219 300.115 431.008 300.554 430.675C306.195 426.432 308.156 420.835 306.439 413.883C306.354 413.557 306.45 413.232 306.673 413.062C307.125 412.716 307.406 412.873 307.514 413.536C308.597 420.008 312.572 423.635 319.44 424.417C319.869 424.465 319.94 424.652 319.654 424.978C315.166 430.099 313.764 435.595 315.448 441.467Z" fill="#6d3e8c" fill-rule="nonzero" opacity="1" stroke="none" vectornator:layerName="path"/>
<path d="M315.448 441.467C316.45 443.479 316.291 443.652 314.97 441.988C314.867 441.299 315.026 441.125 315.448 441.467Z" fill="#6d3e8c" fill-rule="nonzero" opacity="1" stroke="none" vectornator:layerName="path"/>
<path d="M1296.86 1078.78C1296.34 1077.82 1296.1 1078 1296.13 1079.31C1294.83 1075.7 1293.66 1072.05 1292.61 1068.37C1291.03 1062.79 1289.89 1059.14 1289.2 1057.42C1286.7 1051.16 1283.47 1045.42 1279.51 1040.18C1278.74 1039.16 1277.78 1038.21 1276.64 1037.36C1275.73 1036.68 1274.55 1036.04 1273.12 1035.46C1265.54 1032.36 1257.62 1030.96 1249.36 1031.24C1249.02 1031.25 1249 1031.18 1249.3 1031.02C1257.75 1026.48 1263.29 1023.26 1265.93 1021.38C1268.4 1019.63 1270.55 1017.27 1272.38 1014.31C1273.83 1011.96 1275.05 1009.07 1276.07 1005.62C1278.41 997.638 1279.26 989.34 1278.61 980.727C1278.31 976.729 1278.11 971.757 1278.01 965.809C1278.01 965.335 1278.14 965.269 1278.41 965.611C1278.66 965.941 1278.78 966.472 1278.78 967.207C1278.73 970.966 1279.2 974.932 1280.17 979.107C1281.15 983.282 1282.21 987.113 1283.36 990.599C1285.12 995.994 1287.57 1000.6 1290.72 1004.41C1293.51 1007.79 1297.2 1009.83 1301.78 1010.54C1302.12 1010.59 1304.73 1010.85 1309.61 1011.32C1312.23 1011.57 1314.86 1011.66 1317.49 1011.59C1319.69 1011.53 1322 1010.92 1324.42 1009.76C1324.86 1009.55 1325.15 1009.6 1325.29 1009.91C1325.4 1010.16 1325.25 1010.47 1324.95 1010.64C1323.13 1011.6 1321.38 1012.66 1319.69 1013.83C1318.01 1014.99 1316.29 1016.08 1314.52 1017.09C1312.46 1018.27 1309.6 1020.02 1305.95 1022.33C1304.61 1023.17 1303.56 1024.03 1302.79 1024.92C1302.58 1025.16 1301.84 1026.27 1300.57 1028.25C1295.53 1036.12 1293.27 1044.58 1293.8 1053.63C1294.18 1060.16 1295.2 1068.54 1296.86 1078.78Z" fill="#6d3e8c" fill-rule="nonzero" opacity="1" stroke="none" vectornator:layerName="path"/>
<path d="M1367.01 1040.43C1366.36 1040.35 1366.01 1039.85 1365.98 1038.94C1366.06 1036.91 1366.39 1036.9 1366.98 1038.93C1367.04 1039.13 1367.05 1039.63 1367.01 1040.43Z" fill="#6d3e8c" fill-rule="nonzero" opacity="1" stroke="none" vectornator:layerName="path"/>
<path d="M1365.98 1038.94C1366.01 1039.85 1366.36 1040.35 1367.01 1040.43C1367.82 1044.36 1369.32 1047.98 1371.52 1051.32C1371.68 1051.56 1371.73 1051.88 1371.67 1052.21L1369.85 1063.58C1369.73 1063.05 1369.38 1062.91 1368.79 1063.17C1366.97 1059.52 1365.46 1056.96 1364.26 1055.51C1362.99 1053.96 1362.7 1052.4 1363.38 1050.83C1363.69 1050.13 1363.85 1049.74 1363.88 1049.67C1365.07 1046.19 1365.77 1042.62 1365.98 1038.94Z" fill="#6d3e8c" fill-rule="nonzero" opacity="1" stroke="none" vectornator:layerName="path"/>
<path d="M1368.79 1063.17C1369.38 1062.91 1369.73 1063.05 1369.85 1063.58C1369.37 1065.07 1369.02 1064.93 1368.79 1063.17Z" fill="#6d3e8c" fill-rule="nonzero" opacity="1" stroke="none" vectornator:layerName="path"/>
<path d="M1261.31 1100.56C1262.52 1100.96 1263.76 1101.17 1265.05 1101.18C1266.24 1101.19 1266.41 1101.61 1265.55 1102.44C1262.2 1105.7 1260.05 1109.4 1259.09 1113.55C1257.25 1121.52 1257.46 1129.43 1259.72 1137.29C1259.95 1138.09 1259.88 1138.14 1259.5 1137.45C1257.83 1134.42 1255.96 1131.53 1253.9 1128.77C1251.08 1125.01 1248.86 1122.39 1247.25 1120.92C1244.36 1118.28 1240.93 1116.44 1236.95 1115.39C1235.02 1114.88 1233.15 1114.2 1231.35 1113.34C1231.08 1113.21 1230.98 1112.9 1231.15 1112.7C1231.42 1112.41 1231.78 1112.26 1232.24 1112.25C1232.62 1112.24 1232.93 1112.16 1233.16 1112.02C1239.15 1108.2 1242.78 1102.72 1244.05 1095.58C1245.13 1089.49 1245.38 1083.37 1244.8 1077.2C1244.78 1076.89 1244.79 1076.62 1244.84 1076.4C1245.01 1075.55 1245.32 1075.49 1245.76 1076.22C1245.88 1076.41 1245.96 1076.64 1246.02 1076.92C1247.95 1085.42 1252.01 1092.64 1258.22 1098.59C1259.23 1099.56 1260.27 1100.22 1261.31 1100.56Z" fill="#6d3e8c" fill-rule="nonzero" opacity="1" stroke="none" vectornator:layerName="path"/>
<path d="M1296.86 1078.78C1298.25 1085.8 1299.32 1090.93 1300.07 1094.15C1300.14 1094.41 1300.13 1094.6 1300.04 1094.72C1299.82 1095 1299.66 1094.92 1299.56 1094.46L1296.13 1079.31C1296.1 1078 1296.34 1077.82 1296.86 1078.78Z" fill="#6d3e8c" fill-rule="nonzero" opacity="1" stroke="none" vectornator:layerName="path"/>
<path d="M1411.17 1129.35C1410.75 1129 1410.59 1129.18 1410.69 1129.87C1407.71 1123.86 1402.96 1120.3 1396.43 1119.19C1395.89 1119.1 1395.84 1118.89 1396.28 1118.55C1401.92 1114.31 1403.88 1108.71 1402.16 1101.76C1402.08 1101.44 1402.17 1101.11 1402.4 1100.94C1402.85 1100.59 1403.13 1100.75 1403.24 1101.42C1404.32 1107.89 1408.29 1111.51 1415.16 1112.3C1415.59 1112.34 1415.66 1112.53 1415.38 1112.86C1410.89 1117.98 1409.49 1123.47 1411.17 1129.35Z" fill="#6d3e8c" fill-rule="nonzero" opacity="1" stroke="none" vectornator:layerName="path"/>
<path d="M1411.17 1129.35C1412.17 1131.36 1412.01 1131.53 1410.69 1129.87C1410.59 1129.18 1410.75 1129 1411.17 1129.35Z" fill="#6d3e8c" fill-rule="nonzero" opacity="1" stroke="none" vectornator:layerName="path"/>
</g>
</g>
</svg>
